<?xml version="1.0" encoding="UTF-8" standalone="no"?>
<svg
   viewBox="0 0 32 32"
   version="1.1"
   id="svg10"
   sodipodi:docname="ASP.svg"
   inkscape:version="1.1.2 (b8e25be833, 2022-02-05)"
   xmlns:inkscape="http://www.inkscape.org/namespaces/inkscape"
   xmlns:sodipodi="http://sodipodi.sourceforge.net/DTD/sodipodi-0.dtd"
   xmlns="http://www.w3.org/2000/svg"
   xmlns:svg="http://www.w3.org/2000/svg">
  <defs
     id="defs14" />
  <sodipodi:namedview
     id="namedview12"
     pagecolor="#505050"
     bordercolor="#ffffff"
     borderopacity="1"
     inkscape:pageshadow="0"
     inkscape:pageopacity="0"
     inkscape:pagecheckerboard="1"
     showgrid="false"
     inkscape:zoom="22.46875"
     inkscape:cx="16"
     inkscape:cy="15.977747"
     inkscape:window-width="2560"
     inkscape:window-height="1387"
     inkscape:window-x="-8"
     inkscape:window-y="-8"
     inkscape:window-maximized="1"
     inkscape:current-layer="svg10" />
  <path
     d="M 12.786,23.5 H 9.852 L 9.01,20.342 H 5.676 L 4.876,23.5 H 2 L 6.053,8.49 H 8.619 Z M 6.555,16.891 H 8.1 L 7.32,13.867 Z"
     id="path2"
     style="fill:#f15946;fill-opacity:1" />
  <path
     d="m 16.742,23.749 a 3.706,3.706 0 0 1 -3.05,-1.349 7.1,7.1 0 0 1 -1.3,-3.909 l -0.046,-0.566 2.622,-0.368 0.062,0.5 a 3.409,3.409 0 0 0 0.565,1.693 1.425,1.425 0 0 0 1.169,0.515 1.454,1.454 0 0 0 1.179,-0.448 1.36,1.36 0 0 0 0.338,-0.911 0.919,0.919 0 0 0 -0.11,-0.478 1.251,1.251 0 0 0 -0.537,-0.438 C 17.487,17.916 17.1,17.752 16.11,17.398 a 5.006,5.006 0 0 1 -2.355,-1.5 5.121,5.121 0 0 1 -1.016,-3.216 5.536,5.536 0 0 1 0.481,-2.3 3.553,3.553 0 0 1 1.368,-1.6 A 3.834,3.834 0 0 1 16.63,8.255 3.6,3.6 0 0 1 19.6,9.532 5.645,5.645 0 0 1 20.7,13 L 20.714,13.552 18.063,13.72 18,13.238 a 2.26,2.26 0 0 0 -0.395,-1.2 1.274,1.274 0 0 0 -1,-0.353 1.47,1.47 0 0 0 -1.11,0.4 0.535,0.535 0 0 0 -0.15,0.409 0.612,0.612 0 0 0 0.152,0.415 3.877,3.877 0 0 0 1.634,0.817 7.9,7.9 0 0 1 2.188,1.048 3.917,3.917 0 0 1 1.211,1.61 6.386,6.386 0 0 1 0.443,2.517 6.254,6.254 0 0 1 -0.521,2.542 3.757,3.757 0 0 1 -1.472,1.757 4.286,4.286 0 0 1 -2.238,0.549 z"
     id="path4"
     style="fill:#f15946;fill-opacity:1" />
  <path
     d="m 24.56,23.5 h -2.7 V 8.49 h 3.5 a 7.985,7.985 0 0 1 2.41,0.227 3.122,3.122 0 0 1 1.587,1.555 6.479,6.479 0 0 1 0.643,3.05 7.047,7.047 0 0 1 -0.368,2.419 4.29,4.29 0 0 1 -0.942,1.559 2.854,2.854 0 0 1 -1.142,0.743 7.929,7.929 0 0 1 -2.1,0.211 h -0.892 z m 0,-8.717 h 0.688 a 3.214,3.214 0 0 0 1.4,-0.182 1.038,1.038 0 0 0 0.434,-0.482 1.752,1.752 0 0 0 0.152,-0.762 1.616,1.616 0 0 0 -0.209,-0.875 0.946,0.946 0 0 0 -0.571,-0.446 6.032,6.032 0 0 0 -1.335,-0.086 h -0.563 z"
     id="path6"
     style="fill:#f15946;fill-opacity:1" />
</svg>
