<?xml version="1.0" encoding="UTF-8"?>
<svg aria-label="JavaScript" role="img" version="1.1" viewBox="0 0 512 512" xmlns="http://www.w3.org/2000/svg">
 <path d="m76.8 0h358.4c42.547 0 76.8 34.253 76.8 76.8v358.4c0 42.547-34.253 76.8-76.8 76.8h-358.4c-42.547 0-76.8-34.253-76.8-76.8v-358.4c0-42.547 34.253-76.8 76.8-76.8z" fill="#f7df1e"/>
 <path d="m324 370c10 17 24 29 47 29 20 0 33-10 33-24 0-16-13-22-35-32l-12-5c-35-15-58-33-58-72 0-36 27-64 70-64 31 0 53 11 68 39l-37 24c-8-15-17-21-31-21s-23 9-23 21c0 14 9 20 30 29l12 5c41 18 64 35 64 76 0 43-34 67-80 67-45 0-74-21-88-49zm-170 4c8 13 14 25 31 25 16 0 26-6 26-30v-166h48v164c0 50-29 72-72 72-39 0-61-20-72-44z"/>
 <g stroke-width=".47806">
  <g fill="#f15946">
   <g stroke="#f15946">
    <path d="m69.557 511.45c-19.701-1.9794-38.721-11.934-51.102-26.744-8.7097-10.419-14.171-21.827-16.91-35.326l-1.0674-5.2599v-187.88c0-181.03 0.032371-188.05 0.88785-192.66 5.9541-32.06 29.651-55.768 62.216-62.248 4.091-0.81396 13.552-0.85605 192.42-0.85605h188.12l5.3924 1.0928c31.303 6.3437 54.577 29.625 60.926 60.946l1.088 5.3675v376.23l-1.088 5.3675c-6.3184 31.17-28.989 53.97-60.608 60.954l-4.7545 1.0502-186.92 0.0632c-102.81 0.0349-187.67-0.0124-188.59-0.10498zm315.76-70.014c36.445-3.7547 60.965-24.077 65.98-54.683 0.91748-5.5992 0.91895-18.647 3e-3 -24.725-3.0581-20.288-12.514-34.285-31.685-46.901-8.2228-5.4112-23.094-12.947-36.16-18.324-25.696-10.574-33.414-15.931-36.209-25.133-1.4871-4.896-1.1195-11 0.92577-15.371 4.0383-8.6297 13.91-13.246 25.195-11.782 10.188 1.3216 16.906 5.7916 23.272 15.483 1.53 2.3294 2.7819 4.4269 2.7819 4.6611s0.22458 0.42574 0.49905 0.42574c0.53015 0 35.614-22.61 36.729-23.669 0.55196-0.52496 0.28974-1.2401-1.6509-4.5026-11.994-20.164-28.658-31.198-51.669-34.215-7.1912-0.94268-20.792-0.93179-27.35 0.0219-30.412 4.4225-51.727 24.2-56.272 52.212-0.87235 5.3768-0.98106 17.165-0.20823 22.582 2.8611 20.054 12.318 34.462 30.603 46.623 8.0254 5.3375 16.51 9.6742 30.835 15.76 30.887 13.122 39.413 19.045 42.064 29.223 2.657 10.201-1.9534 19.87-11.989 25.143-8.8853 4.6691-22.114 5.7422-33.998 2.758-4.6482-1.1672-12.303-4.9051-16.395-8.0061-4.3287-3.2802-9.9522-9.3966-13.423-14.599-1.6132-2.4184-2.998-4.467-3.0774-4.5525-0.22445-0.24172-40.389 22.911-40.389 23.282 0 0.18092 1.3996 2.6592 3.1102 5.5073 15.823 26.344 43.159 41.618 77.443 43.27 7.6619 0.36931 14.173 0.21796 21.035-0.48892zm-186.3-2.8432c17.757-1.9414 31.536-7.9336 41.692-18.132 9.3207-9.3594 14.68-20.914 17.522-37.772 0.78365-4.65 0.8573-11.453 1.0002-92.385l0.15422-87.365h-48.776l-0.13094 88.082c-0.12346 83.057-0.17979 88.246-0.9873 90.951-2.7414 9.1821-7.3183 13.876-15.438 15.834-5.0661 1.2216-13.455 1.0937-17.403-0.26532-7.5435-2.5964-11.84-6.7386-19.171-18.482l-3.4145-5.4699-2.9296 1.6198c-1.6113 0.89092-10.244 5.5461-19.184 10.345s-16.46 8.9161-16.713 9.1497c-0.66101 0.61182 2.0284 5.8649 6.3315 12.367 11.694 17.67 30.638 28.862 53.329 31.507 5.0529 0.58893 18.793 0.59779 24.119 0.0155z"/>
    <path d="m83.899 510.81c-15.933-0.26667-20.223-0.47911-22.926-1.1355-14.663-3.5598-27.929-10.849-37.993-20.875-5.8369-5.8149-10.228-11.985-14.11-19.824-3.4746-7.0172-4.9084-11.096-6.6833-19.009l-1.2306-5.487 0.025058-182.8c0.013782-100.54 0.21528-186.46 0.44776-190.93 0.32673-6.2818 0.70402-9.1581 1.6618-12.669 6.243-22.882 20.271-39.803 41.374-49.904 6.2612-2.9969 14.93-5.7593 20.403-6.5021 2.5436-0.34516 63.282-0.59921 190.65-0.79743l186.92-0.2909 5.2586 1.0649c32.532 6.5877 54.93 28.357 62.109 60.367l1.2334 5.4994v376.96l-1.2334 5.4994c-6.901 30.77-27.586 51.791-58.763 59.717l-4.7806 1.2155-171.38 0.11306c-94.261 0.0621-180.2-0.0344-190.98-0.21503zm306.27-69.517c29.37-4.764 49.135-18.991 58.171-41.874 0.57106-1.4461 1.606-4.7806 2.2998-7.4099 1.1262-4.268 1.2854-5.897 1.4851-15.193 0.30318-14.112-0.84528-21.398-4.933-31.297-8.1463-19.728-25.76-33.168-65.53-50.004-25.938-10.981-32.854-16.394-34.554-27.046-0.55709-3.4917-0.0479-8.3094 1.1939-11.297 3.1693-7.6243 11.381-12.396 21.236-12.341 11.94 0.0668 20.674 5.4393 27.654 17.01 1.2236 2.0284 2.3947 3.6956 2.6025 3.705 0.47929 0.0215 10.099-6.0426 25.592-16.132 13.928-9.0703 13.064-7.7323 9.1093-14.108-8.7125-14.047-20.291-23.834-34.317-29.005-16.186-5.9681-40.884-6.3738-57.498-0.94446-16.948 5.5383-30.413 16.853-37.8 31.763-3.5847 7.2349-5.462 14.644-6.0694 23.954-1.4712 22.547 4.7762 40.228 19.024 53.841 9.774 9.3381 20.774 15.819 43.576 25.674 32.17 13.904 39.922 19.736 41.547 31.259 1.7052 12.09-7.0364 22.211-21.817 25.261-6.2443 1.2886-18 1.0495-23.69-0.48185-11.617-3.1268-21.279-10.383-29.766-22.355-2.9168-4.1148-3.3483-4.5298-4.4285-4.2586-0.65826 0.16522-7.7782 4.0782-15.822 8.6954-19.867 11.404-23.526 13.609-23.811 14.353-0.30709 0.80027 4.1039 8.215 7.9625 13.385 14.685 19.675 37.006 31.87 64.566 35.276 7.2288 0.89331 27.436 0.63863 34.016-0.42872zm-192.49-2.2141c17.704-1.6693 31.727-7.4038 42.027-17.185 11.936-11.336 18.467-27.157 19.439-47.095 0.21795-4.4698 0.415-45.021 0.43789-90.114l0.0416-81.987-49.205-0.2476-0.18972 15.422c-0.10434 8.4819-0.23663 46.938-0.29398 85.457-0.0573 38.52-0.28761 72.097-0.51169 74.617-0.68684 7.7236-4.4828 14.328-9.9333 17.283-4.1099 2.2282-7.762 2.8742-14.958 2.6457-5.6544-0.17952-6.8454-0.36613-9.6157-1.5066-6.0766-2.5017-10.321-6.9048-17.222-17.865-1.8624-2.958-3.4662-5.3782-3.564-5.3782-0.15012 0-30.162 16.192-37.117 20.026-1.309 0.72146-2.2669 1.5899-2.2709 2.0587-0.01 1.1543 3.163 7.1307 6.1683 11.619 8.5343 12.745 19.817 21.804 33.953 27.264 12.055 4.6558 27.386 6.4413 42.815 4.9865z"/>
    <path d="m67.167 509.85c-3.122-0.1886-6.8126-0.76083-9.0831-1.4084-21.912-6.2489-38.954-20.125-48.748-39.692-3.1827-6.3586-4.7423-10.684-6.5068-18.047l-1.3991-5.8383 0.090521-172.72c0.049787-94.994 0.23114-180.89 0.40301-190.88 0.30592-17.784 0.33978-18.267 1.6105-22.947 3.8234-14.081 10.234-25.171 20.311-35.139 9.7538-9.6477 22.074-16.431 36.629-20.166 3.7563-0.96407 5.3036-0.98827 86.768-1.3571 45.619-0.20652 130.84-0.39562 189.38-0.42023 95.525-0.040158 106.82 0.033203 110.19 0.71563 16.607 3.3619 29.702 9.9063 40.436 20.209 11.378 10.921 18.325 23.623 22.338 40.838 0.9781 4.197 0.97916 4.406 0.97916 193 0 187.72-6e-3 188.82-0.96582 193-4.8848 21.25-15.611 37.565-31.823 48.406-7.9592 5.3222-15.155 8.5687-25.018 11.287l-5.9377 1.6365-187.2-0.0776c-102.96-0.04263-189.56-0.22047-192.46-0.3952zm312.67-67.396c31.37-1.4719 55.266-14.978 66.421-37.543 5.1691-10.456 6.9115-20.261 6.2867-35.376-0.48044-11.623-2.3963-19.37-7.0346-28.446-5.3376-10.444-12.722-18.128-25.541-26.575-9.8013-6.4589-18.953-11.054-42.785-21.481-24.041-10.519-30.17-16.581-29.555-29.229 0.43048-8.8497 5.4488-14.844 14.702-17.562 3.3134-0.97323 10.733-0.98711 14.803-0.0277 7.0726 1.6672 13.77 6.8066 18.666 14.324 3.8785 5.9553 3.5602 5.7539 6.4845 4.1035 1.3636-0.76959 7.4066-4.5673 13.429-8.4394 20.866-13.416 21.706-14.049 21.706-16.362 0-1.7136-7.4341-12.207-12.197-17.216-10.135-10.659-21.512-16.901-35.848-19.669-21.442-4.1398-43.575-1.3585-59.315 7.4539-16.076 9.0005-26.871 23.644-30.611 41.524-1.2485 5.9683-1.2882 23.849-0.0664 29.879 3.8626 19.061 14.272 33.065 33.582 45.18 5.3627 3.3645 16.298 8.7505 30.596 15.069 27.913 12.336 35.621 17.765 38.261 26.949 1.2218 4.2507 0.80803 10.172-0.97207 13.911-2.8082 5.8981-9.6748 11.012-17.784 13.244-3.2163 0.88526-4.9782 1.025-12.812 1.0165-7.6832-8e-3 -9.6426-0.1627-12.713-1.0011-10.877-2.9698-20.364-9.9784-28.737-21.229-2.0881-2.8058-4.1151-5.2237-4.5044-5.3731-0.92093-0.3534-2.761 0.60141-18.833 9.7723-14.369 8.199-21.778 12.658-22.219 13.371-0.63653 1.0299 4.6022 9.7088 9.818 16.265 15.369 19.319 40.735 31.863 67.628 33.442 8.3853 0.49236 9.1746 0.49341 19.146 0.0255zm-183.12-2.8884c19.431-1.7812 33.302-7.6014 44.28-18.58 10.008-10.008 15.508-21.846 17.935-38.602 0.65608-4.5306 0.78381-16.434 0.99244-92.491l0.23945-87.292-2.9905-0.31257c-1.6448-0.17191-12.958-0.31257-25.141-0.31257h-22.15l-0.13506 22.11c-0.0743 12.161-0.19873 49.216-0.27658 82.345-0.14939 63.584-0.37167 73.497-1.7367 77.445-3.2308 9.3464-9.9958 13.632-21.503 13.621-12.291-0.0115-17.794-3.6163-27.18-17.804-2.5657-3.8782-4.7303-7.0514-4.8102-7.0514-0.58243 0-36.818 19.695-38.435 20.891-0.85452 0.63175-1.5537 1.4502-1.5537 1.8187 0 0.98601 3.5318 7.5212 6.3111 11.678 12.712 19.013 32.042 30.153 56.398 32.504 5.8609 0.56583 13.79 0.57852 19.756 0.0316z"/>
    <path d="m89.158 509.37c-26.297-0.26733-27.379-0.31418-30.966-1.3408-27.586-7.8951-47.512-28.434-54.582-56.26l-1.7004-6.6928 0.097578-155.37c0.053668-85.453 0.23135-171.4 0.39486-190.98l0.29728-35.615 1.2657-4.6125c4.7062-17.151 14.11-31.091 28.062-41.598 8.2554-6.2173 22.165-12.467 30.653-13.772 4.4234-0.68025 194.9-1.5317 297.3-1.329l85.811 0.16988 4.0635 1.0621c15.23 3.981 25.796 9.3514 35.149 17.865 7.8707 7.1648 13.001 13.958 17.44 23.093 2.6822 5.5194 5.3965 13.214 6.7586 19.16 0.96749 4.2233 0.96682 381.48 0 385.75-1.2967 5.7303-4.4562 14.469-7.2596 20.078-6.8822 13.772-17.313 24.531-30.932 31.906-5.7288 3.1023-9.7657 4.7374-17.336 7.0219l-6.4495 1.9463-165.41-0.10303c-90.974-0.0566-177.67-0.22769-192.66-0.38005zm296.87-66.971c15.129-1.5652 28.903-6.2462 39.92-13.567 4.5958-3.0537 13.496-11.921 16.416-16.356 4.7758-7.2538 8.0726-15.336 9.7119-23.81 1.1497-5.943 1.1396-22.368-0.018-29.16-2.1559-12.651-7.8172-23.908-16.578-32.964-10.189-10.532-24.557-19.129-52.762-31.569-23.288-10.271-29.774-14.521-33.208-21.758-1.11-2.339-1.2478-3.2099-1.2478-7.888 0-4.8986 0.10175-5.4714 1.486-8.366 2.6271-5.4934 7.8831-9.3818 14.29-10.572 4.3604-0.80984 11.791-0.27421 15.607 1.1251 5.772 2.1164 11.416 6.8938 15.678 13.271 2.6758 4.0037 3.828 5.2586 4.8277 5.2586 1.6394 0 35.617-22.03 36.981-23.978 1.1729-1.6745 0.95293-2.6527-1.4707-6.5412-7.5805-12.162-19.256-22.93-30.342-27.982-20.594-9.3852-51.226-9.0815-71.957 0.7133-16.416 7.7562-28.625 22.351-33.42 39.952-2.4849 9.1211-2.4741 28.587 0.0209 37.808 3.1777 11.744 8.6019 20.922 17.313 29.296 10.254 9.8573 18.674 14.792 47.241 27.685 24.741 11.167 32.479 16.281 35.999 23.796 1.1428 2.4392 1.2884 3.3175 1.2884 7.7697 0 4.4358-0.14787 5.3351-1.2714 7.7326-2.1667 4.6234-6.2126 8.381-12.248 11.376-4.9098 2.436-7.687 2.8831-17.861 2.8753-10.948-8e-3 -13.36-0.45706-20.248-3.7665-7.9559-3.8221-13.391-8.5073-20.996-18.098-3.484-4.3939-4.4928-5.3776-5.5144-5.3776-1.203 0-13.894 6.905-29.422 16.008-9.8345 5.7652-11.234 6.7682-11.234 8.0492 0 1.3244 3.3197 7.1985 7.0086 12.401 1.5354 2.1656 5.5883 6.7471 9.0064 10.181 20.969 21.067 50.957 30.185 87.007 26.455zm-183.81-3.0566c16.539-2.4878 27.913-7.5514 37.75-16.806 9.6442-9.0726 15.186-19.499 18.511-34.827l1.2443-5.7367 0.30984-34.659c0.17042-19.063 0.35704-59.528 0.4147-89.922l0.10486-55.263-4.3817-0.31102c-2.4099-0.17106-13.922-0.31102-25.582-0.31102h-21.2l-9.6e-4 16.134c-1e-3 29.24-0.47682 121.92-0.71926 140.19-0.13083 9.8599-0.44134 19.686-0.69002 21.835-0.75396 6.5166-4.1328 11.983-9.0671 14.668-6.2992 3.4285-17.939 3.6266-24.842 0.42299-3.9093-1.8142-9.4292-7.6145-14.896-15.653-3.3649-4.9476-4.7754-6.6541-5.4089-6.5442-0.47137 0.0817-6.2731 3.0696-12.893 6.6396-24.481 13.203-27.094 14.768-27.094 16.219 0 0.93509 3.604 7.5702 6.3111 11.619 12.856 19.227 32.617 30.645 57.086 32.984 6.2688 0.5992 18.802 0.25886 25.044-0.68006z"/>
   </g>
   <path d="m111.15 508.87c-49.073-0.29745-49.763-0.31471-53.157-1.3308-27.591-8.2598-46.667-28.222-54.127-56.641l-1.4811-5.6425 0.1075-141.6c0.059124-77.88 0.23018-164.08 0.38011-191.56l0.27262-49.957 2.0674-6.2148c2.693-8.0954 5.5499-14.147 9.3488-19.804 8.0061-11.922 16.936-19.652 30.138-26.091 9.6793-4.7207 14.037-6.0184 21.752-6.4781 10.201-0.60786 231.48-1.53 309.54-1.29l70.753 0.21754 5.888 1.7618c7.2538 2.1704 11.962 4.0202 17.479 6.8673 10.472 5.4041 20.808 14.83 27.291 24.888 5.2214 8.1004 10.448 21.309 11.284 28.519 0.53232 4.5889 0.91648 265.6 0.49498 336.33l-0.28918 48.523-2.2803 6.6928c-4.6244 13.573-10.264 23.06-18.755 31.551-9.5846 9.5847-19.357 15.198-34.658 19.909l-5.9757 1.8398-143.18-0.0957c-78.748-0.0526-165.55-0.23128-192.9-0.39707zm273.69-66.014c13.976-1.2415 27.687-5.4314 38.16-11.661 6.8204-4.057 16.306-13.158 20.42-19.592 3.7513-5.8669 7.2734-14.388 8.892-21.513 0.91676-4.0353 0.90858-27.386-0.0112-32.03-3.8723-19.548-15.257-34.3-36.263-46.989-5.8864-3.5556-20.128-10.69-31.675-15.867-12.441-5.5779-22.164-10.436-25.689-12.835-3.6132-2.4592-7.3004-6.4248-8.7433-9.4035-1.017-2.0995-1.1547-3.0301-1.1321-7.6489 0.0229-4.6762 0.16663-5.5538 1.2972-7.9237 3.2424-6.7965 10.517-10.966 19.112-10.956 10.7 0.013 18.137 4.2617 25.85 14.768 4.2073 5.7308 4.1707 5.7074 6.8803 4.391 5.8332-2.834 33.86-21.264 35.492-23.339 1.2577-1.5989 1.1978-2.2785-0.46668-5.2978-5.3224-9.6547-15.42-20.179-25.401-26.475-18.753-11.829-51.378-13.581-75.055-4.0308-19.869 8.0141-34.931 26.606-37.933 46.824-0.96967 6.5304-0.98039 20.921-0.0204 27.338 1.8085 12.089 7.5267 23.611 16.205 32.654 10.392 10.828 18.864 16.043 47.134 29.014 27.38 12.562 34.47 17.112 38.042 24.414 1.2028 2.4584 1.3302 3.208 1.3258 7.7978-4e-3 4.0563-0.19903 5.5107-0.96973 7.2292-2.9268 6.5259-11.631 12.636-19.81 13.905-2.186 0.33916-6.8853 0.45752-12.371 0.31159-9.8276-0.26142-11.611-0.6329-17.797-3.7078-7.7951-3.8746-12.601-7.9355-19.972-16.877-2.4978-3.03-5.0096-5.7685-5.5816-6.0857-0.88286-0.48955-1.5117-0.35597-4.1614 0.88397-5.5143 2.5804-30.734 16.942-35.455 20.19-1.1361 0.78167-2.2002 1.8452-2.3647 2.3634-1.0849 3.4182 10.407 19.044 20.335 27.651 20.923 18.138 47.729 25.517 81.727 22.497zm-177.56-4.0002c14.621-2.9567 24.232-7.7337 33.559-16.681 9.6847-9.2902 15.14-19.982 18.442-36.148 1.0338-5.0611 1.2086-16.9 1.5743-106.65l0.31674-77.726-5.8853-0.31646c-3.237-0.17404-14.994-0.31645-26.128-0.31645h-20.242l-1e-3 36.452c-2e-3 57.412-0.80049 136.9-1.4223 141.66-0.72248 5.5329-2.1418 8.6287-5.4938 11.984-2.489 2.491-3.445 3.0988-6.2566 3.9779-6.6606 2.0825-15.693 1.7651-21.215-0.74545-3.4746-1.5798-9.2661-7.4938-14.262-14.564-2.1371-3.0243-4.4477-6.0267-5.1347-6.6721l-1.2491-1.1734-5.3488 2.7199c-8.4228 4.2831-28.985 15.59-31.846 17.511-3.8908 2.613-3.9154 2.7328-1.5104 7.3351 7.7705 14.87 19.015 25.992 33.267 32.906 7.0338 3.4121 11.559 4.9602 19.076 6.5258 10.892 2.2686 28.312 2.2322 39.762-0.0832z" stroke="#f2f2f2"/>
  </g>
  <path d="m177.36 438.34c-11.648-1.3426-20.063-3.7525-29.285-8.3871-12.905-6.4855-24.142-17.905-30.931-31.435-1.2659-2.5227-1.4209-3.1551-0.89472-3.6503 1.1051-1.0398 37.278-20.322 37.67-20.08 0.20549 0.12699 1.81 2.5476 3.5655 5.3791 7.8802 12.71 13.781 17.415 23.512 18.747 3.9845 0.54556 10.998 0.081 14.769-0.9783 8.8093-2.4745 13.537-9.1598 15.009-21.226 0.36312-2.9755 0.52548-30.363 0.52641-88.799l1e-3 -84.497h47.372l-0.18709 88.321c-0.16383 77.344-0.27931 88.797-0.9291 92.146-2.5871 13.334-6.4737 22.867-12.578 30.851-3.1657 4.1401-10.195 10.491-14.73 13.309-7.0768 4.3967-15.857 7.5291-26.358 9.4038-4.1217 0.73581-22.528 1.3571-26.532 0.89563z" fill="#333" stroke="#f2f2f2"/>
  <path d="m356.01 440.76c-12.163-1.4716-24.044-5.0473-34.28-10.316-8.6224-4.4384-14.412-8.6314-21.057-15.249-6.0653-6.0404-9.704-10.661-13.667-17.354l-2.6037-4.3976 1.0328-0.71708c1.0615-0.737 25.091-14.694 33.717-19.584l4.8319-2.7391 1.4692 2.4564c3.4854 5.8272 10.484 13.541 15.638 17.235 9.5856 6.8704 21.682 9.969 34.499 8.8374 19.179-1.6933 30.432-12.607 28.333-27.479-1.6627-11.781-10.203-18.265-41.559-31.549-23.621-10.007-34.788-16.707-44.941-26.96-9.192-9.2835-13.981-18.313-16.761-31.605-1.3813-6.6044-1.5125-20.869-0.25216-27.428 3.7542-19.538 15.18-34.758 32.678-43.532 10.105-5.0668 19.61-7.3226 32.622-7.7423 13.096-0.4225 21.651 0.59229 31.552 3.7423 15.245 4.8506 27.731 15.134 37.009 30.483l2.347 3.8824-1.1454 0.81654c-1.4958 1.0664-17.227 11.3-27.066 17.607-4.2564 2.7285-7.9135 4.9567-8.127 4.9516-0.21347-5e-3 -1.5634-1.8875-2.9999-4.183-5.0194-8.021-11.569-13.153-19.379-15.183-3.5776-0.9301-12.026-1.0624-15.537-0.24329-3.9958 0.93213-8.8239 3.6532-11.23 6.329-6.902 7.6766-7.1891 19.944-0.65988 28.188 4.1451 5.2336 12.476 9.8173 35.075 19.298 11.066 4.6425 26.766 12.734 33.942 17.493 6.4902 4.3046 12.901 9.6097 16.444 13.607 7.6834 8.6707 12.687 19.432 14.644 31.496 0.98077 6.0469 0.94955 21.799-0.0537 27.091-5.5267 29.152-29.188 48.699-63.829 52.729-7.7426 0.90087-23.316 0.91021-30.686 0.0184z" fill="#333" stroke="#f2f2f2"/>
 </g>
</svg>
