<svg id="visual" viewBox="0 0 2560 1440" width="2560" height="1440" xmlns="http://www.w3.org/2000/svg" xmlns:xlink="http://www.w3.org/1999/xlink" version="1.1"><rect x="0" y="0" width="2560" height="1440" fill="#002233"></rect><path d="M0 377L53.3 354C106.7 331 213.3 285 320 269.8C426.7 254.7 533.3 270.3 640 293.3C746.7 316.3 853.3 346.7 960 336.2C1066.7 325.7 1173.3 274.3 1280 266.7C1386.7 259 1493.3 295 1600 303.2C1706.7 311.3 1813.3 291.7 1920 291.8C2026.7 292 2133.3 312 2240 312C2346.7 312 2453.3 292 2506.7 282L2560 272L2560 0L2506.7 0C2453.3 0 2346.7 0 2240 0C2133.3 0 2026.7 0 1920 0C1813.3 0 1706.7 0 1600 0C1493.3 0 1386.7 0 1280 0C1173.3 0 1066.7 0 960 0C853.3 0 746.7 0 640 0C533.3 0 426.7 0 320 0C213.3 0 106.7 0 53.3 0L0 0Z" fill="#f15946" stroke-linecap="round" stroke-linejoin="miter"></path></svg>