<svg id="visual" viewBox="0 0 2560 1440" width="2560" height="1440" xmlns="http://www.w3.org/2000/svg" xmlns:xlink="http://www.w3.org/1999/xlink" version="1.1"><rect x="0" y="0" width="2560" height="1440" fill="#002233"></rect><path d="M1459 1440L1465.7 1392C1472.3 1344 1485.7 1248 1521.2 1152C1556.7 1056 1614.3 960 1591.3 864C1568.3 768 1464.7 672 1446.5 576C1428.3 480 1495.7 384 1550.2 288C1604.7 192 1646.3 96 1667.2 48L1688 0L2560 0L2560 48C2560 96 2560 192 2560 288C2560 384 2560 480 2560 576C2560 672 2560 768 2560 864C2560 960 2560 1056 2560 1152C2560 1248 2560 1344 2560 1392L2560 1440Z" fill="#f15946" stroke-linecap="round" stroke-linejoin="miter"></path></svg>