<svg id="visual" viewBox="0 0 960 540" width="960" height="540" xmlns="http://www.w3.org/2000/svg" xmlns:xlink="http://www.w3.org/1999/xlink" version="1.1"><rect x="0" y="0" width="960" height="540" fill="#002233"></rect><path d="M548 540L550.5 522C553 504 558 468 571.3 432C584.7 396 606.3 360 597.7 324C589 288 550 252 543.2 216C536.3 180 561.7 144 582.2 108C602.7 72 618.3 36 626.2 18L634 0L960 0L960 18C960 36 960 72 960 108C960 144 960 180 960 216C960 252 960 288 960 324C960 360 960 396 960 432C960 468 960 504 960 522L960 540Z" fill="#f15946" stroke-linecap="round" stroke-linejoin="miter"></path></svg>