<?xml version="1.0" encoding="UTF-8"?>
<!-- Created with Inkscape (http://www.inkscape.org/) -->
<svg width="277.45mm" height="293.57mm" version="1.1" viewBox="0 0 277.45 293.57" xmlns="http://www.w3.org/2000/svg">
 <defs>
  <radialGradient id="a" cx="15.015" cy="18.156" r="11.547" gradientTransform="matrix(.81077 0 0 .81077 108.33 256.55)" gradientUnits="userSpaceOnUse">
   <stop stop-color="#ffb3c0" offset=".216"/>
   <stop stop-color="#fd6ee4" offset=".491"/>
   <stop stop-color="#ac3dff" offset="1"/>
  </radialGradient>
  <linearGradient id="a-8" x1="39.75" x2="13.888" y1="49.75" y2="11.25" gradientTransform="matrix(.86658 0 0 .8707 7.6 1.527)" gradientUnits="userSpaceOnUse">
   <stop stop-color="#d6602e" offset="0"/>
   <stop stop-color="#fd8f49" offset="1"/>
  </linearGradient>
  <linearGradient id="b" x1="41" x2="16" y1="46.75" y2="12.5" gradientUnits="userSpaceOnUse">
   <stop stop-color="#a3582d" offset="0"/>
   <stop stop-color="#ba6d42" offset="1"/>
  </linearGradient>
  <linearGradient id="c" x1="31" x2="41" y1="27" y2="37" gradientTransform="matrix(.72326 0 0 .72326 197.25 240.6)" gradientUnits="userSpaceOnUse">
   <stop stop-color="#292929" offset="0"/>
   <stop stop-opacity="0" offset="1"/>
  </linearGradient>
  <linearGradient id="d" x1="415.5" x2="407.4" y1="537.26" y2="519.75" gradientUnits="userSpaceOnUse">
   <stop stop-color="#eef1f2" offset="0"/>
   <stop stop-color="#f9fafb" offset="1"/>
  </linearGradient>
  <linearGradient id="e" x1="414.63" x2="409.79" y1="531.77" y2="523.38" gradientTransform="matrix(-1.1784 0 0 -1.2468 516.2 684.37)" gradientUnits="userSpaceOnUse">
   <stop stop-color="#197cf1" offset="0"/>
   <stop stop-color="#21c9fb" offset="1"/>
  </linearGradient>
 </defs>
 <g transform="translate(-23.812 -33.634)">
  <g fill-opacity=".50196" stroke="#ececec" stroke-width=".26458">
   <circle cx="110.28" cy="131.09" r="86.332" fill="#f18746"/>
   <circle cx="214.8" cy="133.08" r="86.332" fill="#f1464a"/>
   <circle cx="164.1" cy="227.77" r="86.332" fill="#ffe680"/>
  </g>
  <path d="m92.719 206.8c0 1.3054 1.0581 2.3633 2.3633 2.3633h13.602c1.3054 0 2.3633-1.0581 2.3633-2.3633v-13.602c0-1.3054-1.0581-2.3633-2.3633-2.3633h-13.602c-1.3054 0-2.3633 1.0581-2.3633 2.3633z" fill="#563d7c" stroke-width=".071596"/>
  <path d="m100.32 198.94v-2.5956h2.2848c0.2176 0 0.42742 0.0182 0.62948 0.0544 0.20205 0.0362 0.38079 0.10103 0.53621 0.19428 0.15543 0.0933 0.27977 0.22277 0.37303 0.38856 0.0933 0.16579 0.13988 0.3782 0.13988 0.63725 0 0.46628-0.13988 0.80303-0.41965 1.0103-0.27977 0.20723-0.63724 0.31085-1.0724 0.31085zm-2.4402-4.4918v11.097h5.3777c0.49736 0 0.98177-0.0622 1.4532-0.18651 0.47146-0.12434 0.89111-0.31603 1.259-0.57507s0.66056-0.59321 0.87815-1.0025c0.2176-0.40929 0.3264-0.89369 0.3264-1.4532 0-0.69423-0.16838-1.2874-0.50514-1.7796-0.33675-0.49219-0.84706-0.83671-1.5309-1.0336 0.49736-0.23832 0.87297-0.54399 1.1268-0.91701 0.25386-0.37303 0.38079-0.8393 0.38079-1.3988 0-0.51809-0.0855-0.95328-0.25645-1.3056-0.17097-0.3523-0.41188-0.63465-0.72273-0.84707-0.31085-0.21241-0.68387-0.36525-1.1191-0.4585-0.43519-0.0933-0.91701-0.13988-1.4455-0.13988zm2.4402 9.2012v-3.0463h2.6578c0.52845 0 0.95328 0.12175 1.2745 0.36525 0.32122 0.2435 0.48182 0.65019 0.48182 1.2201 0 0.29013-0.0492 0.52845-0.14765 0.71496-0.0984 0.18651-0.23055 0.33417-0.39634 0.44296-0.16578 0.1088-0.35747 0.18651-0.57507 0.23314-0.2176 0.0466-0.44555 0.0699-0.68387 0.0699z" fill="#fff" stroke-width=".071596"/>
  <g stroke-width=".092593">
   <path d="m230.65 80.625c-1.9e-4 -0.44722-0.0958-0.84241-0.28926-1.1816-0.19001-0.33352-0.47454-0.61306-0.85621-0.83408-3.1505-1.8166-6.304-3.6276-9.4534-5.446-0.84907-0.49019-1.6723-0.47232-2.5151 0.02491-1.254 0.73954-7.5322 4.3365-9.4031 5.4201-0.77047 0.44602-1.1454 1.1286-1.1456 2.0158-1e-3 3.6532 0 7.3064-1e-3 10.96 0 0.43741 0.0918 0.82491 0.27667 1.159 0.19009 0.34361 0.47861 0.63083 0.86907 0.85685 1.8709 1.0836 8.15 4.6803 9.4037 5.42 0.84315 0.4975 1.6664 0.51528 2.5158 0.0249 3.1495-1.8185 6.3032-3.6294 9.4542-5.446 0.39047-0.22593 0.67899-0.51333 0.86908-0.85667 0.18463-0.33407 0.27657-0.72157 0.27657-1.1591 0 0 0-7.3046-1e-3 -10.958" fill="#a179dc"/>
   <path d="m218.85 86.069-11.592 6.6745c0.19009 0.34361 0.47862 0.63084 0.86908 0.85685 1.8709 1.0836 8.15 4.6803 9.4037 5.42 0.84314 0.4975 1.6664 0.51528 2.5157 0.0249 3.1496-1.8185 6.3033-3.6294 9.4542-5.446 0.39046-0.22593 0.67898-0.51334 0.86908-0.85667z" fill="#280068"/>
   <path d="m230.65 80.625c-1.9e-4 -0.44722-0.0958-0.84241-0.28926-1.1816l-11.506 6.625 11.52 6.6735c0.18463-0.33408 0.27638-0.72158 0.27657-1.1591 0 0 0-7.3046-1e-3 -10.958" fill="#390091"/>
  </g>
  <g transform="matrix(.092593 0 0 .092593 206.98 72.806)" fill="#fff">
   <path d="m201.89 116.29v13.474h13.474v-13.474h6.7368v13.474h13.474v6.7368h-13.474v13.474h13.474v6.7368h-13.474v13.474h-6.7368v-13.474h-13.474v13.474h-6.7368v-13.474h-13.474v-6.7368h13.474v-13.474h-13.474v-6.7368h13.474v-13.474zm13.474 20.211h-13.474v13.474h13.474z"/>
   <path d="m128.46 48.626c35.144 0 65.827 19.086 82.262 47.456l-0.16037-0.27307-41.349 23.808c-8.1466-13.794-23.081-23.102-40.213-23.294l-0.53963-3e-3c-26.126 0-47.306 21.179-47.306 47.305 0 8.5436 2.2778 16.552 6.239 23.469 8.1541 14.235 23.483 23.837 41.067 23.837 17.693 0 33.109-9.7234 41.222-24.111l-0.19713 0.34532 41.286 23.918c-16.254 28.13-46.517 47.157-81.253 47.536l-1.0582 6e-3c-35.255 0-66.025-19.204-82.419-47.724-8.003-13.923-12.582-30.064-12.582-47.277 0-52.466 42.532-94.999 95.001-94.999z"/>
  </g>
  <path d="m250.76 169.79c-1.9806-0.14276-3.9381-0.6413-5.1387-1.3087-0.68381-0.38013-1.2048-0.84732-1.4092-1.2637l-0.12164-0.24773v-15.541l0.0962-0.19543c0.43013-0.87325 1.8028-1.6605 3.719-2.1329 0.65047-0.16035 1.5895-0.32004 2.3556-0.40056 0.78225-0.0823 2.8557-0.0697 3.636 0.022 2.0739 0.24365 3.8387 0.78915 4.9263 1.5227 0.41941 0.2829 0.84979 0.73555 0.99558 1.0471l0.125 0.26714-0.0103 7.7472-0.0103 7.7472-0.1003 0.20385c-0.0552 0.11207-0.22189 0.3327-0.37044 0.49016-0.90433 0.95863-2.8441 1.6678-5.3884 1.9699-0.51858 0.0615-2.7715 0.11139-3.3036 0.0731zm3.6499-6.6585c-8e-3 -0.0199-0.30368-0.28361-0.65794-0.58617-0.35426-0.30253-0.65936-0.56429-0.67801-0.58166-0.0186-0.0174 0.0468-0.0789 0.14544-0.13673 0.0986-0.0578 0.28764-0.2187 0.42001-0.35749 0.38704-0.40585 0.56967-0.90719 0.56967-1.5639 0-0.64649-0.19697-1.1681-0.59146-1.5663-0.39758-0.40134-0.85407-0.5738-1.5188-0.5738-1.0247 0-1.8117 0.59791-2.0629 1.5673-0.0864 0.33343-0.0859 1.0072 8.1e-4 1.3028 0.22652 0.77118 0.84346 1.3313 1.6113 1.4628 0.25982 0.0445 0.29503 0.0638 0.47216 0.25735 0.10533 0.1151 0.32132 0.34485 0.48009 0.51055l0.28866 0.30128h0.7674c0.42207 0 0.76116-0.0162 0.75355-0.0361zm-2.6317-2.1487c-0.18474-0.0963-0.25458-0.17108-0.35993-0.38525-0.0813-0.16541-0.0953-0.25949-0.0962-0.65047-8.1e-4 -0.39726 0.0117-0.48312 0.0966-0.65562 0.139-0.28229 0.33054-0.41591 0.62685-0.43735 0.41246-0.0299 0.65054 0.17251 0.77531 0.65898 0.15298 0.59643-0.0152 1.2306-0.38228 1.441-0.19256 0.11035-0.47981 0.1229-0.66044 0.0287zm-3.4015 1.1071c0.80458-0.15258 1.2613-0.6205 1.2613-1.2922 0-0.59588-0.29486-0.94308-1.1098-1.3069-0.46651-0.20826-0.63549-0.33899-0.63549-0.49173 0-0.1266 0.16037-0.26529 0.34705-0.30015 0.18228-0.034 0.66571 0.0499 0.95119 0.16525l0.23929 0.0967v-1.0594l-0.25972-0.0576c-0.16051-0.0356-0.4978-0.057-0.88304-0.0559-0.54567 0-0.65253 0.0133-0.85789 0.0948-0.59982 0.23812-0.88447 0.64377-0.87992 1.254 5e-3 0.57123 0.30562 0.92755 1.0556 1.2481 0.4425 0.18913 0.61987 0.33316 0.61987 0.50335 0 0.36165-0.60261 0.40617-1.2406 0.0916-0.17472-0.0861-0.3317-0.16364-0.34883-0.17222-0.0171-9e-3 -0.0312 0.23886-0.0312 0.54988 0 0.56294 6.1e-4 0.56565 0.10248 0.60445 0.38382 0.14593 1.2321 0.21094 1.6696 0.12797zm9.1982-0.52221v-0.47788h-1.4544v-3.2828h-1.2882v4.2386h2.7426zm-4.4879-8.3743c1.28-0.0888 2.2394-0.25638 3.0837-0.53867 0.84111-0.28123 1.338-0.62153 1.4491-0.99247 0.0429-0.14295 0.0397-0.19716-0.0201-0.35389-0.26834-0.70262-1.7674-1.2424-4.0579-1.4613-0.97982-0.0937-2.7617-0.0633-3.696 0.0629-1.4255 0.1926-2.5824 0.55037-3.0968 0.95768-1.0406 0.82398 0.0598 1.7302 2.6188 2.1568 1.1096 0.18496 2.5471 0.25027 3.7191 0.16897z" fill="#00bcf2" stroke-width=".30227"/>
  <rect x="154.13" y="83.382" width="23.963" height="23.963" rx=".70204%" fill="#f7df1e" stroke-width=".046803"/>
  <path d="m166.72 99.267c0.46803 0.79566 1.1233 1.3573 2.1997 1.3573 0.93606 0 1.5445-0.46802 1.5445-1.1232 0-0.74883-0.60844-1.0297-1.6381-1.4977l-0.56165-0.23402c-1.6381-0.70204-2.7145-1.5445-2.7145-3.3698 0-1.6849 1.2637-2.9954 3.2762-2.9954 1.4509 0 2.4805 0.51484 3.1826 1.8253l-1.7317 1.1232c-0.37441-0.70204-0.79563-0.98285-1.4509-0.98285-0.65524 0-1.0765 0.42122-1.0765 0.98285 0 0.65524 0.42122 0.93606 1.4041 1.3573l0.56164 0.234c1.9189 0.84247 2.9954 1.6381 2.9954 3.557 0 2.0125-1.5913 3.1358-3.7442 3.1358-2.1061 0-3.4634-0.98286-4.1186-2.2933zm-7.9564 0.18721c0.37442 0.60845 0.65524 1.1701 1.4509 1.1701 0.74883 0 1.2168-0.2808 1.2168-1.4041v-7.7692h2.2465v7.6756c0 2.3401-1.3573 3.3698-3.3698 3.3698-1.8253 0-2.855-0.93605-3.3698-2.0593z" stroke-width=".046803"/>
  <g stroke-width=".81077">
   <path d="m127.23 265.94-3.5755-6.2162h-0.98264l-0.31296-0.49376h-0.46538l-3.8747 6.71z" fill="#7600aa"/>
   <path d="m116.33 265.94-1.9524 3.4125-2.1388 1.234-2.2823 3.9525 1.5624 2.6585 6.5016-11.258z" fill="#5c0095"/>
   <path d="m121.89 259.23h-3.0972l-1.684 2.9155 0.69076 1.2162-1.4748 2.5783h1.6904z" fill="#5900af"/>
   <path d="m112.38 277.6 0.52217 0.86913h9.0393l0.50108-0.86913z" fill="#460063"/>
   <path d="m128.2 267.63-0.97292-1.6921h-9.2112l-6.5016 11.258 0.23688 0.40297h10.692z" fill="#8800b8"/>
   <path d="m121.94 278.46h0.57646l0.7516 1.3313h0.49054l-0.74592-1.3313h7.6172l0.51322-0.86913h-8.702z" fill="#2f0031"/>
   <path d="m128.2 267.63-5.7573 9.9685h8.702l1.4132-2.391z" fill="#470056"/>
   <path d="m121.21 269.54-1.8891-3.2844-1.8972 3.2844zm-1.1464 3.7814 1.0645 1.8502h9.996l-1.0646-1.8502zm-1.3654-1.4707-2.9626 5.1306h5.913zm3.2844 1.0735h7.8483l-3.916-6.8089zm-2.4015-7.1186 2.9796 5.1808 3.0842-5.3406-2.9796-5.1808zm-4.353 11.176 4.0692-7.0464h-2.1015l-4.0693 7.0464z" fill="url(#a)"/>
   <path d="m121.2 272.83h-1.1408a0.47511 0.47511 0 0 1-0.40864-0.23258l-0.5586-0.9398a0.4743 0.4743 0 0 1 0-0.48564l0.5586-0.93971a0.47511 0.47511 0 0 1 0.40864-0.23258h1.14c0.16792 0 0.32268 0.0883 0.40863 0.23258l0.55863 0.93971c0.0892 0.14985 0.0892 0.33647 0 0.48564l-0.55863 0.93968a0.47187 0.47187 0 0 1-0.40783 0.23258z" fill="#43004d"/>
  </g>
  <path d="m162.46 219.39a18.201 18.201 0 0 0-18.201 18.201c0 8.0447 5.2236 14.87 12.449 17.291 0.91004 0.14578 1.2012-0.41839 1.2012-0.91002v-3.0759c-5.0415 1.092-6.1154-2.4389-6.1154-2.4389-0.83725-2.1113-2.0203-2.6755-2.0203-2.6755-1.6562-1.1285 0.12738-1.092 0.12738-1.092 1.8201 0.12738 2.7847 1.8747 2.7847 1.8747 1.5834 2.7664 4.2589 1.9474 5.2963 1.5107 0.16358-1.1831 0.63699-1.9839 1.1466-2.4389-4.0405-0.45558-8.2812-2.0203-8.2812-8.9547 0-2.0203 0.69163-3.6401 1.8746-4.9324-0.18241-0.45458-0.81898-2.3479 0.18239-4.805 0 0 1.5288-0.49112 5.0052 1.8564 1.4378-0.40053 3.0031-0.60058 4.5501-0.60058 1.5471 0 3.1123 0.20029 4.5502 0.60058 3.4763-2.3478 5.0051-1.8564 5.0051-1.8564 1.0011 2.457 0.36388 4.3499 0.18243 4.805 1.183 1.2922 1.8746 2.9121 1.8746 4.9324 0 6.9527-4.2589 8.4815-8.3176 8.9364 0.65557 0.56408 1.2558 1.6745 1.2558 3.3671v4.987c0 0.49116 0.291 1.0738 1.2194 0.91002 7.2256-2.4389 12.431-9.2459 12.431-17.291a18.201 18.201 0 0 0-18.201-18.201z" fill="#6e5494" stroke-width="1.82"/>
  <g stroke-width=".40484">
   <path d="m226.81 193.11c-0.1173 0-0.23399-0.0307-0.33681-0.0907l-1.0728-0.63478c-0.16031-0.0895-0.0821-0.12149-0.029-0.13971 0.21375-0.0746 0.25707-0.0919 0.48498-0.22062 0.0238-0.0137 0.055-0.01 0.0797 6e-3l0.82385 0.48944c0.03 0.0165 0.0725 0.0165 0.0996 0l3.2132-1.8546c0.0302-0.017 0.0494-0.0514 0.0494-0.0871v-3.7083c0-0.0364-0.019-0.0701-0.0499-0.0887l-3.212-1.853c-0.03-0.017-0.0693-0.017-0.0991 0l-3.2116 1.8534c-0.0307 0.0182-0.0507 0.0531-0.0507 0.0883v3.7084c0 0.0356 0.0199 0.0691 0.0507 0.0859l0.88012 0.50888c0.47771 0.23845 0.77041-0.0425 0.77041-0.32509v-3.6618c0-0.0514 0.0417-0.0923 0.0932-0.0923h0.40766c0.0507 0 0.0927 0.0408 0.0927 0.0923v3.6618c0 0.63721-0.34694 1.0028-0.95136 1.0028-0.18581 0-0.33197 0-0.74005-0.20081l-0.84247-0.48499c-0.2085-0.12072-0.33682-0.34575-0.33682-0.58621v-3.7083c0-0.24088 0.12837-0.46556 0.33682-0.58539l3.2132-1.857c0.20322-0.11466 0.47325-0.11466 0.67486 0l3.2132 1.857c0.20809 0.12031 0.33723 0.3449 0.33723 0.58539v3.7083c0 0.24089-0.12914 0.46475-0.33723 0.58621l-3.2132 1.855c-0.10201 0.0595-0.2182 0.0903-0.33763 0.0903m0.99306-2.555c-1.4068 0-1.7011-0.64572-1.7011-1.187 0-0.051 0.0418-0.0927 0.0932-0.0927h0.41536c0.0465 0 0.085 0.0332 0.0923 0.0785 0.0624 0.42304 0.24979 0.6364 1.1004 0.6364 0.67648 0 0.96473-0.15303 0.96473-0.51252 0-0.20729-0.0817-0.36072-1.1335-0.46395-0.87931-0.0871-1.423-0.28097-1.423-0.98498 0-0.64813 0.54653-1.0352 1.4623-1.0352 1.0295 0 1.5388 0.35748 1.6032 1.1242 4e-3 0.0259-7e-3 0.0514-0.0243 0.0713-0.0177 0.0182-0.042 0.0295-0.0679 0.0295h-0.41737c-0.0432 0-0.0814-0.0303-0.0903-0.0725-0.10032-0.44533-0.34329-0.58743-1.0036-0.58743-0.73884 0-0.82467 0.25789-0.82467 0.45019 0 0.23359 0.10117 0.3016 1.0992 0.43358 0.9874 0.13082 1.4566 0.31537 1.4566 1.0097 4e-4 0.70158-0.58337 1.1028-1.6011 1.1028" fill="#83cd29"/>
   <path d="m220.2 188.12c0.12668-0.0741 0.20485-0.20929 0.20485-0.35626v-0.95299c0-0.14659-0.0777-0.28178-0.20485-0.35585l-3.3861-1.9659c-0.12746-0.0741-0.2846-0.0746-0.41253-8e-4l-3.4071 1.9671c-0.12714 0.0736-0.20566 0.20931-0.20566 0.35625v3.9334c0 0.14781 0.0794 0.2846 0.20808 0.35788l3.3857 1.9291c0.1247 0.0715 0.27773 0.072 0.40362 4e-3l2.0477-1.1384c0.0652-0.0364 0.10574-0.10454 0.10598-0.17814 4e-4 -0.0745-0.0393-0.14337-0.10357-0.18015l-3.4282-1.9675c-0.0644-0.0368-0.10358-0.10478-0.10358-0.17812v-1.2331c0-0.0737 0.0393-0.14124 0.10285-0.17773l1.0676-0.61536c0.0632-0.0368 0.14168-0.0368 0.20525 0l1.0676 0.61536c0.064 0.0369 0.10334 0.10454 0.10334 0.17773v0.96999c0 0.0741 0.0393 0.14215 0.10285 0.17853 0.064 0.0369 0.14245 0.0369 0.20646-4e-4z" fill="#404137"/>
   <path d="m216.55 187.94c0.0247-0.0137 0.0547-0.0137 0.079 0l0.65381 0.3777c0.0243 0.0137 0.0393 0.0406 0.0393 0.0684v0.75503c0 0.0283-0.0153 0.0542-0.0393 0.0684l-0.65381 0.37731c-0.0243 0.0137-0.0547 0.0137-0.079 0l-0.6534-0.37731c-0.0247-0.0137-0.0396-0.0401-0.0396-0.0684v-0.75503c0-0.028 0.0153-0.0543 0.0396-0.0684z" fill="#83cd29"/>
   <path d="m207.69 189.51c0 0.0364-0.0194 0.0703-0.0514 0.089l-1.17 0.67446c-0.032 0.0187-0.0713 0.0187-0.10285 0l-1.17-0.67446c-0.0319-0.0187-0.0514-0.0526-0.0514-0.089v-1.3514c0-0.0364 0.0199-0.0708 0.0514-0.0895l1.17-0.67528c0.032-0.0189 0.0713-0.0189 0.10333 0l1.1704 0.67528c0.0316 0.0187 0.051 0.0531 0.051 0.0895v1.3514zm0.31618-10.006c-0.0635-0.0352-0.14124-0.0344-0.20444 4e-3 -0.0627 0.0372-0.10165 0.10454-0.10165 0.17731v5.2285c0 0.051-0.0276 0.0989-0.0717 0.1247-0.0446 0.0255-0.0996 0.0255-0.14413 0l-0.85341-0.49188c-0.12716-0.0734-0.28379-0.0734-0.41091 0l-3.4079 1.9667c-0.12744 0.0736-0.20605 0.2097-0.20605 0.35665v3.9346c0 0.14689 0.0785 0.28258 0.20564 0.35667l3.408 1.9679c0.12715 0.0736 0.28419 0.0736 0.41172 0l3.4087-1.9679c0.12715-0.0741 0.20566-0.20972 0.20566-0.35667v-9.808c0-0.14904-0.0809-0.28664-0.21092-0.3595z" fill="#404137"/>
   <path d="m196.01 184.47c0.12715-0.0737 0.28419-0.0737 0.41131 0l3.4079 1.9663c0.12716 0.0737 0.20565 0.20972 0.20565 0.35666v3.9358c0 0.14689-0.0785 0.28298-0.20565 0.35666l-3.4075 1.9679c-0.12716 0.0732-0.2842 0.0732-0.41172 0l-3.4067-1.9679c-0.12716-0.0737-0.20567-0.20971-0.20567-0.35666v-3.9362c0-0.14659 0.0785-0.28258 0.20567-0.35627z" fill="#83cd29"/>
   <path d="m189.81 186.76c0-0.14811-0.0777-0.2842-0.20565-0.35747l-3.4067-1.9606c-0.0583-0.034-0.12271-0.0514-0.18784-0.0538h-0.0352c-0.0647 4e-3 -0.1296 0.0199-0.18784 0.0538l-3.4071 1.9606c-0.12669 0.0732-0.20606 0.2093-0.20606 0.35747l7e-3 5.2791c0 0.0737 0.0384 0.14215 0.10285 0.17773 0.0632 0.0381 0.14122 0.0381 0.20443 0l2.0242-1.1595c0.12792-0.076 0.20606-0.21011 0.20606-0.35706v-2.4663c0-0.14734 0.0777-0.28299 0.20525-0.35666l0.86231-0.49633c0.0639-0.0377 0.13435-0.0554 0.20567-0.0554 0.0703 0 0.14245 0.0177 0.20524 0.0554l0.86149 0.49633c0.12746 0.0737 0.20608 0.2093 0.20608 0.35666v2.4663c0 0.14689 0.079 0.28176 0.20606 0.35706l2.0242 1.1595c0.0635 0.0381 0.14292 0.0381 0.20564 0 0.0627-0.0361 0.10201-0.10454 0.10201-0.17773z" fill="#404137"/>
  </g>
  <path d="m101.5 246.44c0.18225-0.0183 0.29161-0.10936 0.29161-0.25517v-1.9137c0-0.20049 0-0.23694-0.29161-0.29162v-0.10935h0.29161c0.36452 0 0.45565-0.0183 0.45565-0.0183l0.0183 0.0183s-0.12758 0.14581-0.12758 0.4921v1.8226c0 0.10936-0.0183 0.20049-0.0183 0.20049l0.38274 0.0364-0.0183 0.10936-0.9842 0.0183zm1.3305 0c0.18227-0.0183 0.29162-0.10936 0.29162-0.25517v-1.8044c0-0.27338-0.0729-0.36451-0.32806-0.40097v-0.10935h0.12758c0.20048 0 0.40096-0.0183 0.40096-0.0183s0.0547 0.0911 0.14581 0.2005l1.4581 1.6768 0.16404 0.2187v-1.6768c0-0.18227 0-0.2734-0.32807-0.30986v-0.10935h0.76549l0.0183 0.0547s-0.27339 0.0729-0.27339 0.40096v2.2236h-0.10936l-1.7132-2.0048c-0.0547-0.0547-0.10935-0.12758-0.1458-0.20049v1.8226c0 0.12759-0.0183 0.21871-0.0183 0.21871l0.36452 0.0183-0.0183 0.10936-0.78371 0.0183v-0.0729zm3.0619 0c0.18226-0.0183 0.29162-0.10936 0.29162-0.25517v-1.9137c0-0.20049 0-0.23694-0.29162-0.29162v-0.10935h0.30984c0.36452 0 0.45564-0.0183 0.45564-0.0183l0.0183 0.0183s-0.12758 0.14581-0.12758 0.4921v0.7108h0.0729s0.0729-0.0364 0.12758-0.10936l0.7837-0.7837c0.0729-0.0729 0.0729-0.18226-0.10936-0.20049v-0.10935h0.74726l0.0183 0.0547s-0.21871 0.0547-0.51032 0.3463l-0.76548 0.74726v0.0364l0.96596 1.1118c0.18227 0.20048 0.21871 0.21871 0.3463 0.23694h0.0365l-0.0183 0.12758h-0.58323l-0.0183-0.0183s-0.0365-0.12758-0.30984-0.41919l-0.74726-0.87484h-0.0547v0.94774c0 0.10935-0.0183 0.20048-0.0183 0.20048l0.36451 0.0364-0.0182 0.10936-0.96597 0.0183zm2.6427-0.60145h0.12759c0 0.49209 0.30984 0.61967 0.58322 0.61967 0.25516 0 0.51032-0.10935 0.51032-0.41919 0-0.69258-1.2576-0.69258-1.2576-1.4945 0-0.40097 0.2916-0.69259 0.89306-0.69259 0.29161 0 0.565 0.0729 0.65613 0.0729l-0.12758 0.61968h-0.12758c0.0364-0.29162-0.10936-0.54678-0.45565-0.54678-0.27339 0-0.4921 0.12758-0.4921 0.41919 0 0.71081 1.2576 0.6379 1.2576 1.4945 0 0.47387-0.4192 0.7108-0.89307 0.7108-0.34629 0-0.76548-0.12758-0.76548-0.41919-0.0183-0.0729 0-0.12758 0.0911-0.36451zm3.4082-2.0048c0.29161 0 0.65613 0.0729 0.87485 0.0911l-0.12759 0.60145h-0.14581c0-0.41919-0.34628-0.54678-0.67435-0.54678-0.61968 0-1.0206 0.49211-1.0206 1.1482 0 0.72903 0.51032 1.2029 1.1664 1.2029 0.51033 0 0.80195-0.29161 0.80195-0.29161l0.0547 0.0911s-0.30984 0.47387-1.0024 0.47387c-0.71081 0-1.4034-0.4921-1.4034-1.3487 0-0.82016 0.60145-1.4216 1.4763-1.4216zm1.0206 2.6063c0.16403-0.0183 0.23694-0.0911 0.27338-0.18226l0.94775-2.3694 0.16403-0.0364 0.89307 2.2782c0.10935 0.27339 0.18225 0.29162 0.30983 0.30985l-0.0183 0.10935h-0.16403c-0.14581 0-0.60146 0.0183-0.60146 0.0183v-0.12759c0.10935 0 0.21871-0.0364 0.16404-0.16403l-0.23694-0.6379h-0.96597l-0.0547 0.0364-0.27339 0.72903 0.34629 0.0547-0.0183 0.10935h-0.74726v-0.12758zm1.2029-2.1324-0.43741 1.1664h0.87483l-0.34629-0.91129c-0.0364-0.0911-0.0729-0.20048-0.0911-0.25516zm1.5492 2.1324c0.18226-0.0183 0.29161-0.10936 0.29161-0.25517v-1.9137c0-0.20049-0.0183-0.23694-0.32806-0.29162v-0.10935h1.0024c0.45565 0 0.9842 0.14581 0.9842 0.72903 0 0.63791-0.60146 0.85662-1.0389 0.82016v-0.10935c0.47387-0.0183 0.63791-0.30984 0.63791-0.61967 0-0.47388-0.38275-0.67436-0.80194-0.67436h-0.0547l-0.0365 0.0364v2.1142c0 0.10935-0.0183 0.20047-0.0183 0.20047l0.38274 0.0364-0.0183 0.10936-0.98419 0.0183v-0.0911zm2.26 0c0.18226-0.0183 0.29162-0.10936 0.29162-0.25517v-1.9137c0-0.20049-0.0183-0.23694-0.32807-0.29162v-0.10935h1.6586c0.16404 0 0.29161-0.0183 0.29161-0.0183l-0.12757 0.67436h-0.12759c0.0183-0.4192-0.10935-0.49209-0.43742-0.49209h-0.52854l-0.0364 0.0364v1.0389h0.74726l0.0364-0.23694 0.14581-0.0183v0.71081h-0.18226v-0.29162h-0.69259l-0.0364 0.0364v0.85662c0 0.12758-0.0183 0.21871-0.0183 0.21871h0.63789c0.3463 0 0.40098-0.0729 0.60146-0.4921h0.12758l-0.1458 0.65614h-1.294c-0.2005 0-0.58323 0.0183-0.58323 0.0183zm-0.6379-5.7229c0.16404-0.16403 0-0.76548-0.83839-0.94773-0.7837 0.69257 0.0729 1.3852 0.83839 0.94773zm-10.097-0.69258c-0.58324-0.76549-2.7521 0.0364-1.8044 0.85661 0.60145 0.51033 1.531-0.12757 1.8044-0.85661zm12.084-1.0389c-0.36452-1.0389-2.2236-0.96597-2.5152 0.0729 0 0.3463 2.5152 0.565 2.5152-0.0729zm-4.9574-1.6768c1.695-0.98419 7.5455-1.6403 4.7752-4.4106l-6.9805-7.1445c-0.85661-0.82017-2.2782-0.83839-3.0984 0l-6.7436 6.9076c-2.2782 2.825 1.5492 2.4969 3.1895 3.2989l-1.6768 1.6403c0.58323 0.60145 3.554 1.1664 4.1555 1.7679l-0.61967 1.8408c0.58322 0.60146 1.9502 0.0364 2.2053 1.4216 0.18225 0.98419 2.4605 0.41919 3.5722-0.38275l-0.54677-1.1482c1.4581-1.4945 2.825-0.54677 3.3353-2.0413 0.25516-0.74726-2.1506-1.1482-1.5674-1.7497zm-3.5905 0.25515c-0.71082 0.18227-4.192-1.2211-3.3171-1.2211 0.18225 0.10936 2.8979 0.67436 3.5722 0.78371 0.21871 0.0364 0.0547 0.27338-0.25515 0.43741zm2.1689-7.1992-1.1118-0.58323-1.7679 1.1118-0.58322-2.3147-0.96597 1.695h-1.4581c-0.60146 0-0.65613-0.80194-0.12758-1.3305 0.94773-1.0206 2.0231-2.0777 2.6063-2.6792 0.58323-0.60144 1.6221-0.60144 2.2053-0.0183l2.661 2.6974c0.25515 0.25516 0.25515 0.74726 0.10935 0.89307l-1.3305-1.0571z" stroke-width=".18226"/>
  <g transform="matrix(.23536 0 0 .23536 45.733 100.86)" fill="#1572b6">
   <path d="m19.67 26 8.069 90.493 36.206 10.05 36.307-10.063 8.078-90.48zm69.21 50.488-2.35 21.892 9e-3 1.875-22.539 6.295v1e-3l-0.018 0.015-22.719-6.225-1.537-17.341h11.141l0.79 8.766 12.347 3.295-4e-3 0.015v-0.032l12.394-3.495 1.308-14.549h-25.907l-0.222-2.355-0.506-5.647-0.265-2.998h27.886l1.014-11h-42.473l-0.223-2.589-0.506-6.03-0.265-3.381h55.597l-0.267 3.334z"/>
   <path d="m89 14.374-7.149-8.374h7.149v-5h-16v4.363l8.39 7.637h-8.39v5h16zm-19 0-6.807-8.374h6.807v-5h-15v4.363l7.733 7.637h-7.733v5h15zm-18-1.374h-8v-7h8v-5h-14v17h14z"/>
  </g>
  <g stroke-width=".065513">
   <path d="m53.059 142.38-1.5226 17.057-6.8442 1.8974-6.8253-1.8948-1.521-17.06z" fill="#e44d26"/>
   <path d="m44.702 159.89 5.5304-1.5332 1.3012-14.576h-6.8316z" fill="#f16529"/>
   <path d="m41.742 147.96h2.9599v-2.0923h-5.2465l0.05008 0.56133 0.51425 5.7658h4.6822v-2.0923h-2.7687z" fill="#ebebeb"/>
   <path d="m42.214 153.24h-2.1003l0.29313 3.2852 4.2859 1.1898 0.0097-3e-3v-2.1769l-0.0092 3e-3 -2.3302-0.6292z" fill="#ebebeb"/>
   <path d="m37.9 137.75h1.0633v1.0505h0.97265v-1.0505h1.0633v3.1812h-1.0633v-1.0653h-0.97265v1.0653h-1.0633v-3.1812z"/>
   <path d="m42.398 138.8h-0.93606v-1.0549h2.9359v1.0549h-0.93648v2.1263h-1.0633v-2.1263z"/>
   <path d="m44.864 137.75h1.1087l0.68201 1.1178 0.68131-1.1178h1.1091v3.1812h-1.0589v-1.5768l-0.73154 1.1311h-0.0183l-0.73204-1.1311v1.5768h-1.0404z"/>
   <path d="m48.974 137.75h1.0636v2.1297h1.4953v1.0515h-2.5589z"/>
  </g>
  <g transform="matrix(.065513 0 0 .065513 36.316 137.75)" fill="#fff">
   <path d="m127.89 220.57h39.327l-3.7071 41.42-35.62 9.6141v33.227l65.473-18.146 0.48035-5.3957 7.5049-84.08 0.77925-8.576h-74.237z"/>
   <path d="m127.89 155.85v0.0781h77.143l0.6407-7.1786 1.4551-16.191 0.76379-8.5683h-80.003z"/>
  </g>
  <g transform="matrix(.27554 0 0 .27554 96.683 68.855)" fill="#61dafb">
   <circle cx="64" cy="64" r="11.4"/>
   <path d="m107.3 45.2c-2.2-0.8-4.5-1.6-6.9-2.3 0.6-2.4 1.1-4.8 1.5-7.1 2.1-13.2-0.2-22.5-6.6-26.1-1.9-1.1-4-1.6-6.4-1.6-7 0-15.9 5.2-24.9 13.9-9-8.7-17.9-13.9-24.9-13.9-2.4 0-4.5 0.5-6.4 1.6-6.4 3.7-8.7 13-6.6 26.1 0.4 2.3 0.9 4.7 1.5 7.1-2.4 0.7-4.7 1.4-6.9 2.3-12.5 4.8-19.3 11.4-19.3 18.8s6.9 14 19.3 18.8c2.2 0.8 4.5 1.6 6.9 2.3-0.6 2.4-1.1 4.8-1.5 7.1-2.1 13.2 0.2 22.5 6.6 26.1 1.9 1.1 4 1.6 6.4 1.6 7.1 0 16-5.2 24.9-13.9 9 8.7 17.9 13.9 24.9 13.9 2.4 0 4.5-0.5 6.4-1.6 6.4-3.7 8.7-13 6.6-26.1-0.4-2.3-0.9-4.7-1.5-7.1 2.4-0.7 4.7-1.4 6.9-2.3 12.5-4.8 19.3-11.4 19.3-18.8s-6.8-14-19.3-18.8zm-14.8-30.5c4.1 2.4 5.5 9.8 3.8 20.3-0.3 2.1-0.8 4.3-1.4 6.6-5.2-1.2-10.7-2-16.5-2.5-3.4-4.8-6.9-9.1-10.4-13 7.4-7.3 14.9-12.3 21-12.3 1.3 0 2.5 0.3 3.5 0.9zm-11.2 59.3c-1.8 3.2-3.9 6.4-6.1 9.6-3.7 0.3-7.4 0.4-11.2 0.4-3.9 0-7.6-0.1-11.2-0.4-2.2-3.2-4.2-6.4-6-9.6-1.9-3.3-3.7-6.7-5.3-10 1.6-3.3 3.4-6.7 5.3-10 1.8-3.2 3.9-6.4 6.1-9.6 3.7-0.3 7.4-0.4 11.2-0.4 3.9 0 7.6 0.1 11.2 0.4 2.2 3.2 4.2 6.4 6 9.6 1.9 3.3 3.7 6.7 5.3 10-1.7 3.3-3.4 6.6-5.3 10zm8.3-3.3c1.5 3.5 2.7 6.9 3.8 10.3-3.4 0.8-7 1.4-10.8 1.9 1.2-1.9 2.5-3.9 3.6-6 1.2-2.1 2.3-4.2 3.4-6.2zm-25.6 27.1c-2.4-2.6-4.7-5.4-6.9-8.3 2.3 0.1 4.6 0.2 6.9 0.2s4.6-0.1 6.9-0.2c-2.2 2.9-4.5 5.7-6.9 8.3zm-18.6-15c-3.8-0.5-7.4-1.1-10.8-1.9 1.1-3.3 2.3-6.8 3.8-10.3 1.1 2 2.2 4.1 3.4 6.1 1.2 2.2 2.4 4.1 3.6 6.1zm-7-25.5c-1.5-3.5-2.7-6.9-3.8-10.3 3.4-0.8 7-1.4 10.8-1.9-1.2 1.9-2.5 3.9-3.6 6-1.2 2.1-2.3 4.2-3.4 6.2zm25.6-27.1c2.4 2.6 4.7 5.4 6.9 8.3-2.3-0.1-4.6-0.2-6.9-0.2s-4.6 0.1-6.9 0.2c2.2-2.9 4.5-5.7 6.9-8.3zm22.2 21-3.6-6c3.8 0.5 7.4 1.1 10.8 1.9-1.1 3.3-2.3 6.8-3.8 10.3-1.1-2.1-2.2-4.2-3.4-6.2zm-54.5-16.2c-1.7-10.5-0.3-17.9 3.8-20.3 1-0.6 2.2-0.9 3.5-0.9 6 0 13.5 4.9 21 12.3-3.5 3.8-7 8.2-10.4 13-5.8 0.5-11.3 1.4-16.5 2.5-0.6-2.3-1-4.5-1.4-6.6zm-24.7 29c0-4.7 5.7-9.7 15.7-13.4 2-0.8 4.2-1.5 6.4-2.1 1.6 5 3.6 10.3 6 15.6-2.4 5.3-4.5 10.5-6 15.5-13.8-4-22.1-10-22.1-15.6zm28.5 49.3c-4.1-2.4-5.5-9.8-3.8-20.3 0.3-2.1 0.8-4.3 1.4-6.6 5.2 1.2 10.7 2 16.5 2.5 3.4 4.8 6.9 9.1 10.4 13-7.4 7.3-14.9 12.3-21 12.3-1.3 0-2.5-0.3-3.5-0.9zm60.8-20.3c1.7 10.5 0.3 17.9-3.8 20.3-1 0.6-2.2 0.9-3.5 0.9-6 0-13.5-4.9-21-12.3 3.5-3.8 7-8.2 10.4-13 5.8-0.5 11.3-1.4 16.5-2.5 0.6 2.3 1 4.5 1.4 6.6zm9-15.6c-2 0.8-4.2 1.5-6.4 2.1-1.6-5-3.6-10.3-6-15.6 2.4-5.3 4.5-10.5 6-15.5 13.8 4 22.1 10 22.1 15.6 0 4.7-5.8 9.7-15.7 13.4z"/>
  </g>
  <circle class="cls-1" cx="265.91" cy="112.17" r="13.881" fill="#5c2d91" stroke-width=".43377"/>
  <g fill="#fff" stroke-width=".43377">
   <path class="cls-2" d="m256.29 102.19a13.881 13.881 0 1 0 19.598 19.598z" opacity=".1"/>
   <path class="cls-3" d="m255.24 114.45a0.58559 0.58559 0 0 1-0.43378-0.18219 0.59861 0.59861 0 0 1-0.17785-0.43377 0.60728 0.60728 0 0 1 0.17785-0.43377 0.58126 0.58126 0 0 1 0.43378-0.18651 0.59427 0.59427 0 0 1 0.43377 0.18651 0.60294 0.60294 0 0 1 0.18217 0.43377 0.59427 0.59427 0 0 1-0.18217 0.43377 0.59861 0.59861 0 0 1-0.43377 0.18219z"/>
   <path class="cls-3" d="m263.86 114.34h-1.1365l-4.0645-6.307a2.6026 2.6026 0 0 1-0.25159-0.49449h-0.0347a8.1202 8.1202 0 0 1 0.0434 1.0844v5.7171h-0.92394v-7.9077h1.2016l3.956 6.1943q0.24724 0.38605 0.32099 0.5292h0.0217a8.3631 8.3631 0 0 1-0.0564-1.1625v-5.561h0.92394z"/>
   <path class="cls-3" d="m270.11 114.34h-4.2032v-7.9077h4.0081v0.83717h-3.0624v2.6287h2.8542v0.83284h-2.8542v2.7414h3.262z"/>
   <path class="cls-3" d="m276.32 107.27h-2.299v7.0705h-0.92392v-7.0705h-2.273v-0.83717h5.4959z"/>
  </g>
  <g fill="#f2f2f2" stroke-width=".43377">
   <path class="cls-4" d="m263.36 119.72a2.1385 2.1385 0 0 1-1.0064 0.21254 1.6223 1.6223 0 0 1-1.2449-0.49883 1.8479 1.8479 0 0 1-0.46847-1.3013 1.9346 1.9346 0 0 1 0.52485-1.4141 1.7871 1.7871 0 0 1 1.336-0.53787 2.1385 2.1385 0 0 1 0.86756 0.15181v0.43377a1.7351 1.7351 0 0 0-0.86756-0.21688 1.3273 1.3273 0 0 0-1.0194 0.43377 1.5789 1.5789 0 0 0-0.39038 1.1191 1.5052 1.5052 0 0 0 0.36436 1.0628 1.2406 1.2406 0 0 0 0.95863 0.39473 1.7958 1.7958 0 0 0 0.94996-0.24292z"/>
   <path class="cls-4" d="m265.13 119.93a1.2059 1.2059 0 0 1-0.92393-0.38606 1.349 1.349 0 0 1-0.34268-0.96731 1.4054 1.4054 0 0 1 0.36003-1.0237 1.3013 1.3013 0 0 1 0.96731-0.36871 1.1668 1.1668 0 0 1 0.90658 0.36002 1.4228 1.4228 0 0 1 0.32534 0.99334 1.3967 1.3967 0 0 1-0.35136 0.99768 1.2319 1.2319 0 0 1-0.94129 0.39473zm0.0303-2.3727a0.7938 0.7938 0 0 0-0.6333 0.27328 1.1235 1.1235 0 0 0-0.23423 0.75475 1.0627 1.0627 0 0 0 0.23423 0.72874 0.80248 0.80248 0 0 0 0.6333 0.26895 0.76344 0.76344 0 0 0 0.62031-0.26026 1.1365 1.1365 0 0 0 0.21688-0.7461 1.1538 1.1538 0 0 0-0.21688-0.75042 0.7591 0.7591 0 0 0-0.62031-0.26894z"/>
   <path class="cls-4" d="m268.45 117.69a0.51185 0.51185 0 0 0-0.31665-0.0825 0.53354 0.53354 0 0 0-0.43377 0.25157 1.1625 1.1625 0 0 0-0.17784 0.68539v1.3273h-0.43378v-2.6026h0.43378v0.54222a0.91092 0.91092 0 0 1 0.27326-0.43377 0.62029 0.62029 0 0 1 0.40775-0.15181 0.68102 0.68102 0 0 1 0.24725 0.0347z"/>
   <path class="cls-4" d="m270.99 118.68h-1.8348a0.97165 0.97165 0 0 0 0.22121 0.668 0.80682 0.80682 0 0 0 0.61596 0.23423 1.3013 1.3013 0 0 0 0.80683-0.29062v0.39039a1.5095 1.5095 0 0 1-0.90659 0.24727 1.1018 1.1018 0 0 1-0.86755-0.35571 1.4531 1.4531 0 0 1-0.31665-0.99766 1.4228 1.4228 0 0 1 0.34269-0.98901 1.1061 1.1061 0 0 1 0.86753-0.38173 0.98033 0.98033 0 0 1 0.78946 0.32968 1.3794 1.3794 0 0 1 0.27763 0.91958zm-0.43376-0.35137a0.86754 0.86754 0 0 0-0.1735-0.55957 0.59427 0.59427 0 0 0-0.47717-0.19953 0.67235 0.67235 0 0 0-0.49883 0.21255 0.95864 0.95864 0 0 0-0.25592 0.55089z"/>
  </g>
  <g font-family="'Segoe UI'" font-size="10.583px" stroke-width=".26458">
   <text x="24.704943" y="41.726906" fill="#f18746" style="line-height:1.25" xml:space="preserve"><tspan x="24.704943" y="41.726906" fill="#f18746" font-family="'Segoe UI'" stroke-width=".26458">Front End</tspan></text>
   <text x="250.73103" y="41.467892" fill="#f1464a" style="line-height:1.25" xml:space="preserve"><tspan x="250.73103" y="41.467892" fill="#f1464a" font-family="'Segoe UI'" stroke-width=".26458">Back-End</tspan></text>
   <text x="150.73433" y="327.07904" fill="#ffe680" style="line-height:1.25" xml:space="preserve"><tspan x="150.73433" y="327.07904" fill="#ffe680" font-family="'Segoe UI'" stroke-width=".26458">Tools</tspan></text>
  </g>
  <g fill-opacity=".012048" fill-rule="evenodd">
   <path d="m-28.398 101.74 17.589 20.711v-2.1157l-17.589-21.786z" points="-10.809249,122.45331 -10.809249,120.33757 -28.398031,98.551938 -28.398031,101.74254 " fill="#8686bf"/>
   <path d="m-28.398 101.74v-3.1906l-33.836-6.3836v3.5056z" points="-28.398031,98.551938 -62.233865,92.168319 -62.233865,95.673877 -28.398031,101.74254 " fill="#353564"/>
   <path d="m-28.398 101.74 17.589 20.711-20.601-2.5826-30.824-24.197z" points="-10.809249,122.45331 -31.409892,119.87067 -62.233865,95.673877 -28.398031,101.74254 " fill="#4d4d9f"/>
   <path d="m-62.234 95.674 30.824 24.197v-2.2498l-30.824-25.453z" points="-31.409892,119.87067 -31.409892,117.6209 -62.233865,92.168319 -62.233865,95.673877 " fill="#e9e9ff"/>
   <path d="m-10.809 122.45v-2.1157l-20.601-2.7167v2.2498z" points="-10.809249,120.33757 -31.409892,117.6209 -31.409892,119.87067 -10.809249,122.45331 " fill="#d7d7ff"/>
   <path d="m-28.398 98.552 17.589 21.786-20.601-2.7167-30.824-25.453z" points="-10.809249,120.33757 -31.409892,117.6209 -62.233865,92.168319 -28.398031,98.551938 " fill="#afafde"/>
  </g>
  <g transform="matrix(.72326 0 0 .72326 197.25 240.6)" stroke-linejoin="round" stroke-width="2">
   <path d="m24.883 6.008c-1.72 0.12-3.18 1.669-2.04 2.959 0.44 0.498 4.479 3.683 6.157 5.033h-18c-2.854-3e-3 -4.514 4.1 0 4l8.54 0.115-15.67 12.153c-4.313 3.343-0.293 7.431 3.28 4.449l8.375-6.99c-0.092 1.777 0.499 4.616 1.538 6.443 2.437 4.205 6.775 7.844 14.068 7.809 8.198-0.04 15.272-6.656 14.85-15.133-0.134-3.348-2.487-7.594-7.169-11.239-3.442-2.68-11.696-8.86-12.21-9.181a2.842 2.842 0 0 0-1.72-0.418z" fill="url(#a-8)"/>
   <path transform="matrix(.86658 0 0 .8707 5.864 1.521)" d="m19.197 6.979c-0.153 0.504-0.064 1.052 0.393 1.566 0.436 0.492 4.951 4.082 7.108 5.787h1.153c-1.936-1.55-7.754-6.092-8.261-6.664a1.836 1.836 0 0 1-0.393-0.69zm-16.5 9.574c-0.274 1.269 0.598 2.432 3.23 2.373l9.847 0.125 1.692-1.273h-11.54c-2.011 0.044-3.018-0.312-3.229-1.225zm8.63 12.582-9.847 8.105c-2.675 2.222-5.55 1.02-5.892-1.142-0.409 2.677 2.872 4.53 5.892 2.021l9.666-8.03c0.067-0.465 0.149-0.818 0.18-0.954zm34.982 0.523c-0.252 8.838-8.064 15.644-17.465 15.69-8.923 0.043-14.296-5.245-16.593-10.374-0.574-1.289-0.857-2.55-1.094-3.815 0.103 2.538 1.056 5.265 2.226 7.16 2.708 4.316 7.958 8.208 15.46 8.171 9.711-0.047 17.726-7.589 17.466-16.832z" fill="url(#b)" opacity=".5"/>
  </g>
  <path d="m224.26 255.54-9.1839 9.1839 6.131 6.1303c4.7446-0.65092 8.669-4.328 9.2259-9.1405z" fill="url(#c)" opacity=".2" stroke-width=".72326"/>
  <g transform="matrix(.72326 0 0 .72326 197.25 240.6)" stroke-linecap="round" stroke-linejoin="round" stroke-width="2">
   <path transform="matrix(.84809 0 0 .8969 -319.63 -447.15)" d="m424.04 528.37c0.094 2.688-0.955 5.304-2.937 7.255-2.006 1.973-4.78 3.082-7.69 3.064-2.907-0.019-5.672-1.16-7.668-3.153-1.969-1.966-3.01-4.582-2.918-7.258 0.091-2.63 1.272-5.106 3.265-6.903 1.97-1.776 4.596-2.762 7.318-2.755 2.725 7e-3 5.359 1.007 7.34 2.8 2.007 1.815 3.197 4.309 3.29 6.95z" fill="url(#d)"/>
   <path d="M 30.996,22 A 4.973,4.973 0 0 0 26,26.91 5.027,5.027 0 0 0 30.996,32 4.974,4.974 0 0 0 36,26.957 5.027,5.027 0 0 0 30.996,22 Z" fill="url(#e)"/>
  </g>
  <polygon class="st0" transform="matrix(.017494 0 0 .017494 189.49 271.5)" points="158.8 345.3 158.8 855.3 600.5 1110.3 1042.1 855.3 1042.1 345.3 600.5 90.3" fill="#e02330"/>
  <g fill="#fff">
   <g stroke-width=".017494">
    <path class="st1" d="m195.13 284.57c-9e-3 -7e-3 -0.0139-0.0175-0.0122-0.0298v-0.22918c0-9e-3 9e-3 -0.0175 0.0175-9e-3 0.10495 0.0648 0.22568 0.0979 0.34813 0.0979 0.14345 0 0.20295-0.0508 0.20295-0.11902 0-0.0595-0.042-0.10676-0.17321-0.16095l-0.0979-0.0385c-0.23266-0.0979-0.30089-0.21693-0.30089-0.36913 0-0.20818 0.15744-0.37262 0.46184-0.37262 0.11901 0 0.22917 0.0175 0.2974 0.0508 9e-3 5e-3 0.0139 0.0156 0.0122 0.0262v0.21517c0 9e-3 -5e-3 0.0175-0.0175 9e-3 -0.077-0.042-0.18195-0.0629-0.29216-0.0629-0.14869 0-0.19943 0.0508-0.19943 0.11367 0 0.0595 0.0385 0.0979 0.18194 0.15745l0.0718 0.0297c0.25366 0.10495 0.32714 0.22392 0.32714 0.38137 0 0.23267-0.18719 0.37787-0.48284 0.37787-0.14519 0-0.26416-0.0263-0.34463-0.0683z"/>
    <path class="st1" d="m196.39 284.13c0 0.1662 0.0769 0.2799 0.25017 0.2799 0.14344 0 0.23792-0.0769 0.23792-0.2834v-0.733c0-0.0123 4e-3 -0.0175 0.0175-0.0175h0.23266c0.0122 0 0.0175 4e-3 0.0175 0.0175v0.7505c0 0.36037-0.22918 0.50382-0.51258 0.50382-0.30965 0-0.50908-0.16095-0.50908-0.49508v-0.75924c0-0.0123 0-0.0175 0.0175-0.0175h0.23092c0.0122 0 0.0175 4e-3 0.0175 0.0175z"/>
    <path class="st1" d="m197.4 283.39c0-0.0123 0-0.0175 0.0122-0.021 0.0683 0 0.25367-5e-3 0.39012-5e-3 0.40761 0 0.4741 0.20819 0.4741 0.3359 0 0.1312-0.0683 0.20817-0.11901 0.2414 0.0718 0.0385 0.17845 0.11902 0.17845 0.29216 0 0.23267-0.20293 0.39012-0.53007 0.39012-0.18719 0-0.32189 0-0.39362-5e-3 -9e-3 0-0.0122-9e-3 -0.0122-0.0175zm0.25891 0.46883h0.1312c0.056 0 0.11368 4e-3 0.16971 9e-3 0.0385-0.0315 0.0611-0.0805 0.0595-0.1312 0-0.0979-0.0718-0.14869-0.21694-0.14869-0.0473-8.8e-4 -0.0927 0-0.13996 4e-3v0.26766zm0 0.54232c0.0385 0 0.0805 4e-3 0.13994 4e-3 0.16621 0 0.26243-0.0508 0.26243-0.16095 0-0.0629-0.0262-0.119-0.11901-0.14345-0.0385-9e-3 -0.0788-0.014-0.11901-0.0123h-0.16444z"/>
    <path class="st1" d="m198.5 284.57c-9e-3 -7e-3 -0.0139-0.0175-0.0122-0.0298v-0.22918c0-9e-3 9e-3 -0.0175 0.0175-9e-3 0.10495 0.0648 0.22568 0.0979 0.34814 0.0979 0.14345 0 0.20292-0.0508 0.20292-0.11902 0-0.0595-0.042-0.10676-0.17318-0.16095l-0.0979-0.0385c-0.23268-0.0979-0.30091-0.21693-0.30091-0.36913 0-0.20818 0.15746-0.37262 0.46185-0.37262 0.11901 0 0.22917 0.0175 0.29741 0.0508 9e-3 5e-3 0.014 0.0156 0.0122 0.0262v0.21517c0 9e-3 -4e-3 0.0175-0.0175 9e-3 -0.0769-0.042-0.18194-0.0629-0.29216-0.0629-0.14869 0-0.19943 0.0508-0.19943 0.11367 0 0.0595 0.0385 0.0979 0.18194 0.15745l0.0718 0.0297c0.25366 0.10495 0.32715 0.22392 0.32715 0.38137 0 0.23267-0.1872 0.37787-0.48285 0.37787-0.1452 0-0.26415-0.0263-0.34463-0.0683z"/>
    <path class="st1" d="m199.78 283.61h-0.37786c-0.0122 0-0.0122-4e-3 -0.0122-0.0175l0.0263-0.20294c0-0.0122 4e-3 -0.0175 0.021-0.0175h0.95868c0.0122 0 0.021 4e-3 0.021 0.0175l0.021 0.20294c0 0.0123-4e-3 0.021-0.0175 0.021h-0.37263v0.99542c8.8e-4 0.0109-7e-3 0.021-0.0175 0.021h-0.22741c-0.0123 0-0.021-4e-3 -0.021-0.0175z"/>
    <path class="st1" d="m200.67 284.32-0.0927 0.28341c-4e-3 9e-3 -9e-3 0.0175-0.021 0.0175h-0.22042c-0.0122 0-0.0175-9e-3 -0.0175-0.021l0.38137-1.1021c9e-3 -0.021 0.0175-0.042 0.021-0.11901-8.8e-4 -5e-3 4e-3 -0.0123 9e-3 -0.0123h4e-3 0.30615c9e-3 0 0.0123 0 0.0175 0.0123l0.43208 1.2246c4e-3 5e-3 4e-3 0.0109-8.8e-4 0.0157-8.7e-4 8.8e-4 -5e-3 8.8e-4 -7e-3 8.8e-4h-0.25017c-9e-3 8.8e-4 -0.0175-4e-3 -0.021-0.0123l-0.0979-0.2834h-0.44086zm0.37086-0.24142c-0.0385-0.12771-0.11367-0.35687-0.15219-0.49158-0.0298 0.1277-0.0979 0.33938-0.14869 0.49158z"/>
    <path class="st1" d="m201.65 284.62c-0.0122 0-0.0175 0-0.0175-0.0175v-1.2211c0-9e-3 4e-3 -0.0175 0.0123-0.0175h0.30964c0.0175 0 0.0175 4e-3 0.0263 0.0175 0.12771 0.23791 0.38487 0.73824 0.4496 0.8782 0-0.056-4e-3 -0.11368-4e-3 -0.30091v-0.57729c0-0.0123 4e-3 -0.0175 0.0175-0.0175h0.21519c0.0123 0 0.0175 4e-3 0.0175 0.021v1.2176c0 0.0175-5e-3 0.021-0.021 0.021h-0.27592c-0.0175 0-0.021-4e-3 -0.0263-0.0175-0.10677-0.21168-0.39361-0.74525-0.47409-0.95342 9e-3 0.11016 9e-3 0.18718 9e-3 0.36912v0.5843c0 0.0123-4e-3 0.0175-0.0175 0.0175h-0.22044z"/>
    <path class="st1" d="m203.82 284.58c8.8e-4 0.0123-5e-3 0.0228-0.0175 0.0263-0.0875 0.0245-0.1767 0.0367-0.26766 0.0333-0.37263 0-0.66128-0.22043-0.66128-0.6403 0-0.39012 0.26765-0.65253 0.69101-0.65253 0.119 0 0.19944 9e-3 0.25019 0.0332 9e-3 4e-3 0.0122 0.0123 0.0122 0.021v0.20818c0 0.0175-9e-3 0.0175-0.0175 0.0123-0.0629-0.0298-0.1522-0.042-0.25017-0.042-0.25365 0-0.4111 0.15746-0.4111 0.40763 0 0.2974 0.21693 0.41111 0.41985 0.41111 0.0788 8.8e-4 0.15744-7e-3 0.23267-0.0297 9e-3 -3e-3 0.0175 0 0.0175 9e-3z"/>
    <path class="st1" d="m204.83 284.6c0 0.0175-5e-3 0.0175-0.021 0.0175h-0.78023c-0.0123 0-0.0175-5e-3 -0.0175-0.0175v-1.2211c0-0.0123 4e-3 -0.0175 0.0175-0.0175h0.754c0.0175 0 0.0175 0 0.021 0.0175l0.021 0.20819c0 9e-3 0 0.0175-0.0122 0.0175h-0.53357v0.25368h0.48809c9e-3 -8.8e-4 0.0156 5e-3 0.0175 0.0123v5e-3 0.21168c0 0.0122-9e-3 0.0122-0.0175 0.0122h-0.48809v0.2799h0.56332c0.0175 0 0.0175 4e-3 0.0175 0.0175z"/>
    <path class="st1" d="m196.01 285.2c0-9e-3 5e-3 -0.0175 0.0122-0.0175 0.0718-4e-3 0.22392-9e-3 0.37262-9e-3 0.40236 0 0.5808 0.22918 0.5808 0.48284 0 0.34288-0.27116 0.50382-0.60179 0.50382-0.0979 0-0.12246-4e-3 -0.17319-4e-3v0.5056c0 0.0123-5e-3 0.0175-0.0122 0.0175h-0.1627c-7e-3 0-0.0122-4e-3 -0.0122-9e-3v-3e-3 -1.4678zm0.18544 0.79248c0.0576 5e-3 0.1155 5e-3 0.17319 4e-3 0.22392 0 0.41461-0.084 0.41461-0.33063 0-0.20818-0.16095-0.31839-0.39012-0.31839-0.0927 0-0.16619 4e-3 -0.19943 4e-3z"/>
    <path class="st1" d="m197.31 286.21-0.1662 0.4566c-4e-3 9e-3 -9e-3 0.0122-0.0175 0.0122h-0.15219c-0.0122 0-0.0175-9e-3 -0.0122-0.0175l0.49682-1.3768c9e-3 -0.0175 0.0123-0.0333 0.0175-0.0927 0-7e-3 4e-3 -0.0122 9e-3 -0.0122h4e-3 0.22391c7e-3 0 0.0122 4e-3 0.0122 9e-3v4e-3l0.53356 1.4748c5e-3 9e-3 5e-3 0.0175-9e-3 0.0175h-0.17319c-9e-3 0-0.0122-4e-3 -0.0175-0.0122l-0.1662-0.46184zm0.52132-0.17495c-0.0508-0.1487-0.19418-0.54755-0.23792-0.69976h-4e-3c-0.0385 0.14346-0.14869 0.44961-0.23267 0.69976z"/>
    <path class="st1" d="m198.64 286.66c0 0.0122-4e-3 0.0175-0.0122 0.0175h-0.16094c-0.0122 0-0.0175-4e-3 -0.0175-0.0175v-1.4695c0-0.0123 4e-3 -0.0175 0.0122-0.0175h0.16096c5e-3 -8.8e-4 0.0122 4e-3 0.0122 9e-3v4e-3 1.4748z"/>
    <path class="st1" d="m199.03 286.68c-9e-3 8.7e-4 -0.0157-5e-3 -0.0175-0.014v-4e-3 -1.4695c0-7e-3 4e-3 -0.0123 0.0109-0.0123h4e-3 0.22566c0.0122 0 0.0122 4e-3 0.021 0.0123 0.19943 0.33413 0.63154 1.0724 0.72424 1.2508h4e-3c-4e-3 -0.0595-9e-3 -0.1487-9e-3 -0.34288v-0.90444c0-0.0123 5e-3 -0.0175 0.0175-0.0175h0.1487c9e-3 -8.8e-4 0.0156 5e-3 0.0175 0.0122v5e-3 1.466c0 0.0123-4e-3 0.0175-0.021 0.0175h-0.20466c-0.0109 8.8e-4 -0.021-4e-3 -0.0263-0.0123-0.10143-0.1907-0.67002-1.1284-0.74174-1.2963h-4e-3c4e-3 0.0892 9e-3 0.19943 9e-3 0.39887v0.89395c0 0.0123-5e-3 0.0175-0.0122 0.0175z"/>
    <path class="st1" d="m200.86 285.35h-0.48808c-9e-3 0-0.0123-4e-3 -0.0123-0.0175l0.021-0.14345c4e-3 -9e-3 9e-3 -0.0123 0.0175-0.0123h1.1109c0.0122 0 0.0175 4e-3 0.0175 0.0175l0.0175 0.13997c4e-3 0.0122-4e-3 0.0175-0.0123 0.0175h-0.48809v1.3086c0 0.0123-4e-3 0.0175-0.0175 0.0175h-0.15745c-0.0122 0-0.0175-4e-3 -0.0175-0.0175v-1.3103z"/>
    <path class="st1" d="m202.62 286.66c-4e-3 0.0122-9e-3 0.0122-0.0175 0.0122h-0.86421c-0.0175 0-0.0175-4e-3 -0.0175-0.0175v-1.4643c0-0.0122 4e-3 -0.0175 0.0175-0.0175h0.83096c0.0122 0 0.0122 4e-3 0.0175 0.0122l0.0175 0.14347c5e-3 9e-3 0 0.0175-0.0123 0.0175h-0.67877v0.4741h0.61404c5e-3 -8.8e-4 0.0122 4e-3 0.0122 9e-3v4e-3 0.14345c0 0.0122-9e-3 0.0122-0.0122 0.0122h-0.61404v0.50908h0.72075c0.0122 0 0.0122 4e-3 0.0122 0.0123z"/>
    <path class="st1" d="m202.89 286.68c-7e-3 0-0.0122-4e-3 -0.0122-9e-3v-4e-3 -1.466c0-0.0122 4e-3 -0.0175 0.0122-0.0175 0.12771-4e-3 0.24142-9e-3 0.39361-9e-3 0.33415 0 0.55458 0.14345 0.55458 0.43211 0 0.21168-0.14347 0.34287-0.31316 0.40235 0.077 0.10676 0.38137 0.55457 0.44085 0.65254 4e-3 9e-3 4e-3 0.0175-9e-3 0.0175h-0.19068c-9e-3 0-0.0175-4e-3 -0.0263-9e-3 -0.0716-0.10676-0.25891-0.39886-0.37262-0.57205-0.0175-0.0263-0.0298-0.0385-0.0508-0.0385h-0.25696v0.60531c0 7e-3 -4e-3 0.0122-0.0109 0.0122h-4e-3zm0.41636-0.78024c0.21692 0 0.34812-0.11016 0.34812-0.27991 0-0.17318-0.1312-0.2764-0.37262-0.2764-0.084 0-0.16968 4e-3 -0.21518 4e-3v0.55107z"/>
   </g>
   <circle class="st1" transform="rotate(-13.291)" cx="131.03" cy="315.23" r=".39011" stroke-width=".017494"/>
   <g stroke-width=".017494">
    <circle class="st1" cx="202.85" cy="281.64" r=".61404"/>
    <circle class="st1" cx="197.52" cy="281.65" r=".27116"/>
    <path class="st1" d="m199.98 277.47c-1.3226 0-2.3949 1.0724-2.3949 2.395s1.0724 2.3949 2.3949 2.3949c1.3226 0 2.395-1.0724 2.395-2.3949v-8.8e-4c-8.8e-4 -1.3226-1.0776-2.3932-2.395-2.3932zm1.6042 2.3075-0.7435-0.23966v-0.1697l-0.86246-0.50032-0.63329 0.36736 2.2375 0.71552v0.83796l-1.6042 0.92544-1.6042-0.92544v-0.83796l0.74351 0.23617v0.17494l0.86244 0.50033 0.64554-0.37438-2.2515-0.71026v-0.83796l1.6042-0.92544 1.6042 0.92544v0.83796z"/>
   </g>
  </g>
  <polygon class="st0" transform="matrix(.017494 0 0 .017494 189.49 271.5)" points="158.8 345.3 158.8 855.3 600.5 1110.3 1042.1 855.3 1042.1 345.3 600.5 90.3" fill="#e02330"/>
  <g fill="#fff">
   <g stroke-width=".017494">
    <path class="st1" d="m195.13 284.57c-9e-3 -7e-3 -0.0139-0.0175-0.0122-0.0298v-0.22918c0-9e-3 9e-3 -0.0175 0.0175-9e-3 0.10495 0.0648 0.22568 0.0979 0.34813 0.0979 0.14345 0 0.20295-0.0508 0.20295-0.11902 0-0.0595-0.042-0.10676-0.17321-0.16095l-0.0979-0.0385c-0.23266-0.0979-0.30089-0.21693-0.30089-0.36913 0-0.20818 0.15744-0.37262 0.46184-0.37262 0.11901 0 0.22917 0.0175 0.2974 0.0508 9e-3 5e-3 0.0139 0.0156 0.0122 0.0262v0.21517c0 9e-3 -5e-3 0.0175-0.0175 9e-3 -0.077-0.042-0.18195-0.0629-0.29216-0.0629-0.14869 0-0.19943 0.0508-0.19943 0.11367 0 0.0595 0.0385 0.0979 0.18194 0.15745l0.0718 0.0297c0.25366 0.10495 0.32714 0.22392 0.32714 0.38137 0 0.23267-0.18719 0.37787-0.48284 0.37787-0.14519 0-0.26416-0.0263-0.34463-0.0683z"/>
    <path class="st1" d="m196.39 284.13c0 0.1662 0.0769 0.2799 0.25017 0.2799 0.14344 0 0.23792-0.0769 0.23792-0.2834v-0.733c0-0.0123 4e-3 -0.0175 0.0175-0.0175h0.23266c0.0122 0 0.0175 4e-3 0.0175 0.0175v0.7505c0 0.36037-0.22918 0.50382-0.51258 0.50382-0.30965 0-0.50908-0.16095-0.50908-0.49508v-0.75924c0-0.0123 0-0.0175 0.0175-0.0175h0.23092c0.0122 0 0.0175 4e-3 0.0175 0.0175z"/>
    <path class="st1" d="m197.4 283.39c0-0.0123 0-0.0175 0.0122-0.021 0.0683 0 0.25367-5e-3 0.39012-5e-3 0.40761 0 0.4741 0.20819 0.4741 0.3359 0 0.1312-0.0683 0.20817-0.11901 0.2414 0.0718 0.0385 0.17845 0.11902 0.17845 0.29216 0 0.23267-0.20293 0.39012-0.53007 0.39012-0.18719 0-0.32189 0-0.39362-5e-3 -9e-3 0-0.0122-9e-3 -0.0122-0.0175zm0.25891 0.46883h0.1312c0.056 0 0.11368 4e-3 0.16971 9e-3 0.0385-0.0315 0.0611-0.0805 0.0595-0.1312 0-0.0979-0.0718-0.14869-0.21694-0.14869-0.0473-8.8e-4 -0.0927 0-0.13996 4e-3v0.26766zm0 0.54232c0.0385 0 0.0805 4e-3 0.13994 4e-3 0.16621 0 0.26243-0.0508 0.26243-0.16095 0-0.0629-0.0262-0.119-0.11901-0.14345-0.0385-9e-3 -0.0788-0.014-0.11901-0.0123h-0.16444z"/>
    <path class="st1" d="m198.5 284.57c-9e-3 -7e-3 -0.0139-0.0175-0.0122-0.0298v-0.22918c0-9e-3 9e-3 -0.0175 0.0175-9e-3 0.10495 0.0648 0.22568 0.0979 0.34814 0.0979 0.14345 0 0.20292-0.0508 0.20292-0.11902 0-0.0595-0.042-0.10676-0.17318-0.16095l-0.0979-0.0385c-0.23268-0.0979-0.30091-0.21693-0.30091-0.36913 0-0.20818 0.15746-0.37262 0.46185-0.37262 0.11901 0 0.22917 0.0175 0.29741 0.0508 9e-3 5e-3 0.014 0.0156 0.0122 0.0262v0.21517c0 9e-3 -4e-3 0.0175-0.0175 9e-3 -0.0769-0.042-0.18194-0.0629-0.29216-0.0629-0.14869 0-0.19943 0.0508-0.19943 0.11367 0 0.0595 0.0385 0.0979 0.18194 0.15745l0.0718 0.0297c0.25366 0.10495 0.32715 0.22392 0.32715 0.38137 0 0.23267-0.1872 0.37787-0.48285 0.37787-0.1452 0-0.26415-0.0263-0.34463-0.0683z"/>
    <path class="st1" d="m199.78 283.61h-0.37786c-0.0122 0-0.0122-4e-3 -0.0122-0.0175l0.0263-0.20294c0-0.0122 4e-3 -0.0175 0.021-0.0175h0.95868c0.0122 0 0.021 4e-3 0.021 0.0175l0.021 0.20294c0 0.0123-4e-3 0.021-0.0175 0.021h-0.37263v0.99542c8.8e-4 0.0109-7e-3 0.021-0.0175 0.021h-0.22741c-0.0123 0-0.021-4e-3 -0.021-0.0175z"/>
    <path class="st1" d="m200.67 284.32-0.0927 0.28341c-4e-3 9e-3 -9e-3 0.0175-0.021 0.0175h-0.22042c-0.0122 0-0.0175-9e-3 -0.0175-0.021l0.38137-1.1021c9e-3 -0.021 0.0175-0.042 0.021-0.11901-8.8e-4 -5e-3 4e-3 -0.0123 9e-3 -0.0123h4e-3 0.30615c9e-3 0 0.0123 0 0.0175 0.0123l0.43208 1.2246c4e-3 5e-3 4e-3 0.0109-8.8e-4 0.0157-8.7e-4 8.8e-4 -5e-3 8.8e-4 -7e-3 8.8e-4h-0.25017c-9e-3 8.8e-4 -0.0175-4e-3 -0.021-0.0123l-0.0979-0.2834h-0.44086zm0.37086-0.24142c-0.0385-0.12771-0.11367-0.35687-0.15219-0.49158-0.0298 0.1277-0.0979 0.33938-0.14869 0.49158z"/>
    <path class="st1" d="m201.65 284.62c-0.0122 0-0.0175 0-0.0175-0.0175v-1.2211c0-9e-3 4e-3 -0.0175 0.0123-0.0175h0.30964c0.0175 0 0.0175 4e-3 0.0263 0.0175 0.12771 0.23791 0.38487 0.73824 0.4496 0.8782 0-0.056-4e-3 -0.11368-4e-3 -0.30091v-0.57729c0-0.0123 4e-3 -0.0175 0.0175-0.0175h0.21519c0.0123 0 0.0175 4e-3 0.0175 0.021v1.2176c0 0.0175-5e-3 0.021-0.021 0.021h-0.27592c-0.0175 0-0.021-4e-3 -0.0263-0.0175-0.10677-0.21168-0.39361-0.74525-0.47409-0.95342 9e-3 0.11016 9e-3 0.18718 9e-3 0.36912v0.5843c0 0.0123-4e-3 0.0175-0.0175 0.0175h-0.22044z"/>
    <path class="st1" d="m203.82 284.58c8.8e-4 0.0123-5e-3 0.0228-0.0175 0.0263-0.0875 0.0245-0.1767 0.0367-0.26766 0.0333-0.37263 0-0.66128-0.22043-0.66128-0.6403 0-0.39012 0.26765-0.65253 0.69101-0.65253 0.119 0 0.19944 9e-3 0.25019 0.0332 9e-3 4e-3 0.0122 0.0123 0.0122 0.021v0.20818c0 0.0175-9e-3 0.0175-0.0175 0.0123-0.0629-0.0298-0.1522-0.042-0.25017-0.042-0.25365 0-0.4111 0.15746-0.4111 0.40763 0 0.2974 0.21693 0.41111 0.41985 0.41111 0.0788 8.8e-4 0.15744-7e-3 0.23267-0.0297 9e-3 -3e-3 0.0175 0 0.0175 9e-3z"/>
    <path class="st1" d="m204.83 284.6c0 0.0175-5e-3 0.0175-0.021 0.0175h-0.78023c-0.0123 0-0.0175-5e-3 -0.0175-0.0175v-1.2211c0-0.0123 4e-3 -0.0175 0.0175-0.0175h0.754c0.0175 0 0.0175 0 0.021 0.0175l0.021 0.20819c0 9e-3 0 0.0175-0.0122 0.0175h-0.53357v0.25368h0.48809c9e-3 -8.8e-4 0.0156 5e-3 0.0175 0.0123v5e-3 0.21168c0 0.0122-9e-3 0.0122-0.0175 0.0122h-0.48809v0.2799h0.56332c0.0175 0 0.0175 4e-3 0.0175 0.0175z"/>
    <path class="st1" d="m196.01 285.2c0-9e-3 5e-3 -0.0175 0.0122-0.0175 0.0718-4e-3 0.22392-9e-3 0.37262-9e-3 0.40236 0 0.5808 0.22918 0.5808 0.48284 0 0.34288-0.27116 0.50382-0.60179 0.50382-0.0979 0-0.12246-4e-3 -0.17319-4e-3v0.5056c0 0.0123-5e-3 0.0175-0.0122 0.0175h-0.1627c-7e-3 0-0.0122-4e-3 -0.0122-9e-3v-3e-3 -1.4678zm0.18544 0.79248c0.0576 5e-3 0.1155 5e-3 0.17319 4e-3 0.22392 0 0.41461-0.084 0.41461-0.33063 0-0.20818-0.16095-0.31839-0.39012-0.31839-0.0927 0-0.16619 4e-3 -0.19943 4e-3z"/>
    <path class="st1" d="m197.31 286.21-0.1662 0.4566c-4e-3 9e-3 -9e-3 0.0122-0.0175 0.0122h-0.15219c-0.0122 0-0.0175-9e-3 -0.0122-0.0175l0.49682-1.3768c9e-3 -0.0175 0.0123-0.0333 0.0175-0.0927 0-7e-3 4e-3 -0.0122 9e-3 -0.0122h4e-3 0.22391c7e-3 0 0.0122 4e-3 0.0122 9e-3v4e-3l0.53356 1.4748c5e-3 9e-3 5e-3 0.0175-9e-3 0.0175h-0.17319c-9e-3 0-0.0122-4e-3 -0.0175-0.0122l-0.1662-0.46184zm0.52132-0.17495c-0.0508-0.1487-0.19418-0.54755-0.23792-0.69976h-4e-3c-0.0385 0.14346-0.14869 0.44961-0.23267 0.69976z"/>
    <path class="st1" d="m198.64 286.66c0 0.0122-4e-3 0.0175-0.0122 0.0175h-0.16094c-0.0122 0-0.0175-4e-3 -0.0175-0.0175v-1.4695c0-0.0123 4e-3 -0.0175 0.0122-0.0175h0.16096c5e-3 -8.8e-4 0.0122 4e-3 0.0122 9e-3v4e-3 1.4748z"/>
    <path class="st1" d="m199.03 286.68c-9e-3 8.7e-4 -0.0157-5e-3 -0.0175-0.014v-4e-3 -1.4695c0-7e-3 4e-3 -0.0123 0.0109-0.0123h4e-3 0.22566c0.0122 0 0.0122 4e-3 0.021 0.0123 0.19943 0.33413 0.63154 1.0724 0.72424 1.2508h4e-3c-4e-3 -0.0595-9e-3 -0.1487-9e-3 -0.34288v-0.90444c0-0.0123 5e-3 -0.0175 0.0175-0.0175h0.1487c9e-3 -8.8e-4 0.0156 5e-3 0.0175 0.0122v5e-3 1.466c0 0.0123-4e-3 0.0175-0.021 0.0175h-0.20466c-0.0109 8.8e-4 -0.021-4e-3 -0.0263-0.0123-0.10143-0.1907-0.67002-1.1284-0.74174-1.2963h-4e-3c4e-3 0.0892 9e-3 0.19943 9e-3 0.39887v0.89395c0 0.0123-5e-3 0.0175-0.0122 0.0175z"/>
    <path class="st1" d="m200.86 285.35h-0.48808c-9e-3 0-0.0123-4e-3 -0.0123-0.0175l0.021-0.14345c4e-3 -9e-3 9e-3 -0.0123 0.0175-0.0123h1.1109c0.0122 0 0.0175 4e-3 0.0175 0.0175l0.0175 0.13997c4e-3 0.0122-4e-3 0.0175-0.0123 0.0175h-0.48809v1.3086c0 0.0123-4e-3 0.0175-0.0175 0.0175h-0.15745c-0.0122 0-0.0175-4e-3 -0.0175-0.0175v-1.3103z"/>
    <path class="st1" d="m202.62 286.66c-4e-3 0.0122-9e-3 0.0122-0.0175 0.0122h-0.86421c-0.0175 0-0.0175-4e-3 -0.0175-0.0175v-1.4643c0-0.0122 4e-3 -0.0175 0.0175-0.0175h0.83096c0.0122 0 0.0122 4e-3 0.0175 0.0122l0.0175 0.14347c5e-3 9e-3 0 0.0175-0.0123 0.0175h-0.67877v0.4741h0.61404c5e-3 -8.8e-4 0.0122 4e-3 0.0122 9e-3v4e-3 0.14345c0 0.0122-9e-3 0.0122-0.0122 0.0122h-0.61404v0.50908h0.72075c0.0122 0 0.0122 4e-3 0.0122 0.0123z"/>
    <path class="st1" d="m202.89 286.68c-7e-3 0-0.0122-4e-3 -0.0122-9e-3v-4e-3 -1.466c0-0.0122 4e-3 -0.0175 0.0122-0.0175 0.12771-4e-3 0.24142-9e-3 0.39361-9e-3 0.33415 0 0.55458 0.14345 0.55458 0.43211 0 0.21168-0.14347 0.34287-0.31316 0.40235 0.077 0.10676 0.38137 0.55457 0.44085 0.65254 4e-3 9e-3 4e-3 0.0175-9e-3 0.0175h-0.19068c-9e-3 0-0.0175-4e-3 -0.0263-9e-3 -0.0716-0.10676-0.25891-0.39886-0.37262-0.57205-0.0175-0.0263-0.0298-0.0385-0.0508-0.0385h-0.25696v0.60531c0 7e-3 -4e-3 0.0122-0.0109 0.0122h-4e-3zm0.41636-0.78024c0.21692 0 0.34812-0.11016 0.34812-0.27991 0-0.17318-0.1312-0.2764-0.37262-0.2764-0.084 0-0.16968 4e-3 -0.21518 4e-3v0.55107z"/>
   </g>
   <circle class="st1" transform="rotate(-13.291)" cx="131.03" cy="315.23" r=".39011" stroke-width=".017494"/>
   <g stroke-width=".017494">
    <circle class="st1" cx="202.85" cy="281.64" r=".61404"/>
    <circle class="st1" cx="197.52" cy="281.65" r=".27116"/>
    <path class="st1" d="m199.98 277.47c-1.3226 0-2.3949 1.0724-2.3949 2.395s1.0724 2.3949 2.3949 2.3949c1.3226 0 2.395-1.0724 2.395-2.3949v-8.8e-4c-8.8e-4 -1.3226-1.0776-2.3932-2.395-2.3932zm1.6042 2.3075-0.7435-0.23966v-0.1697l-0.86246-0.50032-0.63329 0.36736 2.2375 0.71552v0.83796l-1.6042 0.92544-1.6042-0.92544v-0.83796l0.74351 0.23617v0.17494l0.86244 0.50033 0.64554-0.37438-2.2515-0.71026v-0.83796l1.6042-0.92544 1.6042 0.92544v0.83796z"/>
   </g>
  </g>
  <g transform="matrix(.11197 0 0 .11197 131 107.42)" fill="none" stroke-linecap="square" stroke-miterlimit="10">
   <g transform="translate(8.964,4.2527)" fill-rule="evenodd" stroke="#000" stroke-linecap="butt" stroke-linejoin="round" stroke-width="4">
    <path d="m63.02 200.61-43.213-174.94 173.23 49.874z"/>
    <path d="m106.39 50.612 21.591 87.496-86.567-24.945z"/>
    <path d="m84.91 125.03-10.724-43.465 43.008 12.346z"/>
    <path d="m63.458 38.153 10.724 43.465-43.008-12.346z"/>
    <path d="m149.47 62.93 10.724 43.465-43.008-12.346z"/>
    <path d="m84.915 125.06 10.724 43.465-43.008-12.346z"/>
   </g>
  </g>
  <text x="134.26103" y="134.22536" fill="#000000" font-family="sans-serif" font-size="4.4788px" stroke-width=".11197" style="line-height:1.25" xml:space="preserve"><tspan x="134.26103" y="134.22536" stroke-width=".11197">three.js</tspan></text>
  <g transform="matrix(.036055 0 0 .036055 69.249 155.87)">
   <rect width="512" height="512" rx="15%" fill="#c69"/>
   <path d="m258 88c-96 33-158 100-152 140s66 72 93 93c-35 18-79 45-78 80 2 48 54 33 76 19s44-53 30-94c31-8 58 2 66 8 31 22 15 47 4 51s-4 6 3 4 22-12 22-29c0-43-46-63-103-48-33-35-78-51-76-89 1-14 6-50 95-95s152-27 144 14c-12 62-120 104-158 68-2-4-9-7-5 4 20 50 182 27 189-79 2-56-79-71-150-47zm-86 320c-25 8-24-8-23-14 3-17 17-38 59-59 12 38-15 67-36 73z" fill="#fff"/>
  </g>
  <g transform="matrix(.035278 0 0 -.035278 151.55 177.9)">
   <path d="m640 320c0-176.74-143.26-320-320-320s-320 143.26-320 320 143.26 320 320 320 320-143.26 320-320" fill="#589da8"/>
   <path d="m400 270c0 33.137 26.863 60 60 60s60-26.863 60-60-26.863-60-60-60-60 26.863-60 60" fill="#f5f5e6"/>
   <path d="m430 270c0 16.563 13.434 30 30 30s30-13.437 30-30c0-16.562-13.434-30-30-30s-30 13.438-30 30" fill="#589da8"/>
   <g fill="#f5f5e6">
    <path d="m450 180h-270v200h270z"/>
    <path d="m450 380c0-27.617-60.441-50-135-50-74.555 0-135 22.383-135 50s60.445 50 135 50c74.563 0 135-22.383 135-50"/>
    <path d="m450 180c0-27.617-60.441-50-135-50-74.555 0-135 22.383-135 50s60.445 50 135 50c74.563 0 135-22.383 135-50"/>
   </g>
   <path d="m420 385c0-13.809-47.008-25-105-25-57.988 0-105 11.191-105 25s47.008 25 105 25c57.996 0 105-11.191 105-25" fill="#4f6366"/>
   <g fill="#f5bb3d">
    <path d="m268.32 546.78c-1.484-8.554-2.125-15.488 0.168-23.972 0.016-0.395-4e-3 0.093 0 0 1.797-6.438 4.911-11.028 9.481-15.91 5.437-5.809 8.875-14.747 9.18-22.586 0.535-13.938-7.305-26.86-18.829-34.309 1.336 4.609 2.407 9.48 2.012 14.297-0.293 3.547-1.289 7.644-2.367 10.098-6.844 15.585-17.809 23.875-17.922 39.668 0.098 13.273 6.051 26.289 18.277 32.714"/>
    <path d="m314.71 595.17c-1.484-8.555-2.121-15.492 0.172-23.977 0.015-0.39-4e-3 0.098 0 0 1.797-6.433 4.906-11.023 9.476-15.906 5.442-5.812 8.879-14.746 9.18-22.59 0.539-13.933-7.305-26.855-18.828-34.304 1.34 4.605 2.406 9.48 2.012 14.297-0.293 3.542-1.289 7.644-2.368 10.093-6.839 15.586-17.808 23.879-17.917 39.672 0.093 13.27 6.046 26.285 18.273 32.715"/>
    <path d="m361.52 531.38c-1.086-6.242-1.555-11.313 0.125-17.512 4e-3 -0.293-4e-3 0.071 0 0 1.308-4.695 3.578-8.047 6.918-11.621 3.976-4.25 6.484-10.762 6.707-16.492 0.394-10.188-5.34-19.609-13.75-25.063 0.972 3.364 1.754 6.926 1.468 10.442-0.214 2.59-0.941 5.586-1.734 7.375-4.988 11.387-13.004 17.437-13.086 28.972 0.066 9.7 4.418 19.2 13.352 23.899"/>
   </g>
   <path d="m380 265c0 19.336-15.668 35-35 35-12.812 0-23.895-6.953-30-17.227-6.098 10.274-17.184 17.227-29.996 17.227-19.328 0-35-15.664-35-35 0-9.68 3.926-18.43 10.269-24.766l54.75-54.746 54.747 54.746-0.024 8e-3c6.34 6.34 10.254 15.09 10.254 24.758" fill="#de6724"/>
  </g>
 </g>
</svg>
